<svg width="123" height="29" viewBox="0 0 123 29" fill="none" xmlns="http://www.w3.org/2000/svg">
<rect y="0.0825195" width="28" height="28" rx="6.27429" fill="url(#paint0_linear_4176_214)"/>
<path d="M19.3636 13.7185C19.3733 12.9519 19.5735 12.2003 19.9456 11.5335C20.3177 10.8668 20.8496 10.3066 21.4918 9.90509C21.0839 9.31255 20.5457 8.82491 19.92 8.48091C19.2943 8.13691 18.5983 7.94601 17.8874 7.92339C16.3708 7.76151 14.9006 8.84627 14.1278 8.84627C13.3401 8.84627 12.1502 7.93946 10.8689 7.96627C10.0402 7.9935 9.2325 8.23859 8.52457 8.67766C7.81664 9.11673 7.23262 9.7348 6.82941 10.4717C5.08279 13.547 6.38561 18.0667 8.05872 20.5525C8.89582 21.7698 9.87414 23.1295 11.1543 23.0813C12.4069 23.0284 12.8748 22.2689 14.3868 22.2689C15.8849 22.2689 16.3238 23.0813 17.6299 23.0506C18.9741 23.0284 19.821 21.828 20.6287 20.5992C21.2302 19.7318 21.693 18.7732 22 17.7589C21.2191 17.423 20.5527 16.8607 20.0838 16.1422C19.615 15.4238 19.3645 14.5808 19.3636 13.7185Z" fill="white"/>
<path d="M16.8969 6.28844C17.6298 5.39369 17.9909 4.24364 17.9035 3.08252C16.7838 3.20212 15.7495 3.74635 15.0067 4.60677C14.6435 5.02711 14.3653 5.51612 14.1881 6.04585C14.0109 6.57558 13.938 7.13564 13.9738 7.69401C14.5338 7.69987 15.0879 7.57642 15.5942 7.33295C16.1006 7.08949 16.546 6.73235 16.8969 6.28844Z" fill="white"/>
<mask id="path-3-outside-1_4176_214" maskUnits="userSpaceOnUse" x="35.9141" y="-0.91748" width="60" height="9" fill="black">
<rect fill="white" x="35.9141" y="-0.91748" width="60" height="9"/>
<path d="M38.6081 1.89898C39.1603 1.89898 39.6429 2.00481 40.0559 2.21649C40.4738 2.42324 40.7947 2.72352 41.0185 3.11733C41.2474 3.50622 41.3618 3.96156 41.3618 4.48336C41.3618 5.00516 41.2474 5.45805 41.0185 5.84201C40.7947 6.22598 40.4738 6.52134 40.0559 6.72809C39.6429 6.92992 39.1603 7.03083 38.6081 7.03083H36.9141V1.89898H38.6081ZM38.6081 6.34412C39.2151 6.34412 39.6802 6.18168 40.0036 5.85678C40.327 5.53189 40.4887 5.07408 40.4887 4.48336C40.4887 3.88772 40.327 3.42253 40.0036 3.08779C39.6802 2.75305 39.2151 2.58568 38.6081 2.58568H37.7648V6.34412H38.6081Z"/>
<path d="M43.4289 1.89898V7.03083H42.5781V1.89898H43.4289Z"/>
<path d="M46.6279 7.08252C46.2796 7.08252 45.9662 7.02345 45.6876 6.9053C45.409 6.78224 45.1901 6.60995 45.0309 6.38843C44.8717 6.16691 44.7921 5.90847 44.7921 5.61311H45.7025C45.7224 5.83463 45.8095 6.01677 45.9637 6.15952C46.1229 6.30228 46.3443 6.37366 46.6279 6.37366C46.9214 6.37366 47.1503 6.30474 47.3145 6.16691C47.4786 6.02415 47.5607 5.84201 47.5607 5.62049C47.5607 5.4482 47.5085 5.30791 47.404 5.19961C47.3045 5.09131 47.1777 5.00763 47.0234 4.94855C46.8742 4.88948 46.6652 4.82549 46.3966 4.75657C46.0583 4.66796 45.7821 4.57936 45.5682 4.49075C45.3592 4.39722 45.1801 4.25446 45.0309 4.06248C44.8816 3.87049 44.807 3.61452 44.807 3.29454C44.807 2.99919 44.8816 2.74075 45.0309 2.51923C45.1801 2.29771 45.3891 2.12788 45.6578 2.00973C45.9264 1.89159 46.2374 1.83252 46.5906 1.83252C47.0931 1.83252 47.5035 1.95805 47.8219 2.2091C48.1453 2.45523 48.3244 2.7949 48.3592 3.22809H47.4189C47.404 3.04103 47.3145 2.88104 47.1503 2.74813C46.9861 2.61522 46.7697 2.54876 46.501 2.54876C46.2573 2.54876 46.0583 2.6103 45.904 2.73336C45.7498 2.85643 45.6727 3.03364 45.6727 3.26501C45.6727 3.42253 45.7199 3.55298 45.8145 3.65636C45.914 3.75481 46.0384 3.83357 46.1876 3.89265C46.3369 3.95172 46.5408 4.01571 46.7995 4.08463C47.1428 4.17816 47.4214 4.27169 47.6354 4.36522C47.8543 4.45875 48.0384 4.60397 48.1876 4.80087C48.3418 4.99286 48.4189 5.2513 48.4189 5.57619C48.4189 5.83709 48.3468 6.08322 48.2025 6.31459C48.0632 6.54595 47.8568 6.73301 47.5831 6.87577C47.3145 7.0136 46.9961 7.08252 46.6279 7.08252Z"/>
<path d="M53.4228 3.42746C53.4228 3.68836 53.3606 3.93449 53.2362 4.16585C53.1118 4.39722 52.9128 4.58674 52.6392 4.73442C52.3656 4.87717 52.0148 4.94855 51.587 4.94855H50.6467V7.03083H49.7959V1.89898H51.587C51.985 1.89898 52.3208 1.96789 52.5944 2.10573C52.873 2.23864 53.0795 2.42078 53.2138 2.65214C53.3531 2.8835 53.4228 3.14194 53.4228 3.42746ZM51.587 4.26184C51.9104 4.26184 52.1516 4.19047 52.3109 4.04771C52.4701 3.90003 52.5497 3.69328 52.5497 3.42746C52.5497 2.86627 52.2288 2.58568 51.587 2.58568H50.6467V4.26184H51.587Z"/>
<path d="M56.973 7.08252C56.4904 7.08252 56.0451 6.97176 55.6372 6.75024C55.2342 6.5238 54.9133 6.21121 54.6745 5.81248C54.4407 5.40882 54.3237 4.95594 54.3237 4.45383C54.3237 3.95172 54.4407 3.5013 54.6745 3.10256C54.9133 2.70383 55.2342 2.3937 55.6372 2.17218C56.0451 1.94574 56.4904 1.83252 56.973 1.83252C57.4605 1.83252 57.9058 1.94574 58.3088 2.17218C58.7168 2.3937 59.0377 2.70383 59.2715 3.10256C59.5053 3.5013 59.6222 3.95172 59.6222 4.45383C59.6222 4.95594 59.5053 5.40882 59.2715 5.81248C59.0377 6.21121 58.7168 6.5238 58.3088 6.75024C57.9058 6.97176 57.4605 7.08252 56.973 7.08252ZM56.973 6.35151C57.3163 6.35151 57.6222 6.27521 57.8909 6.1226C58.1596 5.96508 58.3685 5.74356 58.5178 5.45805C58.672 5.16761 58.7491 4.83287 58.7491 4.45383C58.7491 4.07478 58.672 3.74251 58.5178 3.45699C58.3685 3.17148 58.1596 2.95242 57.8909 2.79982C57.6222 2.64722 57.3163 2.57092 56.973 2.57092C56.6297 2.57092 56.3237 2.64722 56.0551 2.79982C55.7864 2.95242 55.575 3.17148 55.4207 3.45699C55.2715 3.74251 55.1969 4.07478 55.1969 4.45383C55.1969 4.83287 55.2715 5.16761 55.4207 5.45805C55.575 5.74356 55.7864 5.96508 56.0551 6.1226C56.3237 6.27521 56.6297 6.35151 56.973 6.35151Z"/>
<path d="M65.0937 7.03083H64.243L61.6833 3.19855V7.03083H60.8325V1.89159H61.6833L64.243 5.71649V1.89159H65.0937V7.03083Z"/>
<path d="M67.4348 1.89898V7.03083H66.584V1.89898H67.4348ZM67.7781 0.798764L66.1288 1.60362V0.983363L67.7781 0.0825195V0.798764Z"/>
<path d="M73.395 1.89898L71.4473 7.03083H70.4622L68.507 1.89898H69.4174L70.9547 6.16691L72.4995 1.89898H73.395Z"/>
<path d="M75.3304 2.5783V4.08463H77.1214V4.77134H75.3304V6.34412H77.3453V7.03083H74.4796V1.89159H77.3453V2.5783H75.3304Z"/>
<path d="M79.617 6.35151H81.3708V7.03083H78.7663V1.89898H79.617V6.35151Z"/>
<path d="M89.0282 7.03083H88.1775L85.6178 3.19855V7.03083H84.767V1.89159H85.6178L88.1775 5.71649V1.89159H89.0282V7.03083Z"/>
<path d="M93.6454 5.98231H91.4738L91.1006 7.03083H90.2126L92.0708 1.89159H93.0559L94.9141 7.03083H94.0185L93.6454 5.98231ZM93.4066 5.2956L92.5633 2.91058L91.7126 5.2956H93.4066Z"/>
</mask>
<path d="M38.6081 1.89898C39.1603 1.89898 39.6429 2.00481 40.0559 2.21649C40.4738 2.42324 40.7947 2.72352 41.0185 3.11733C41.2474 3.50622 41.3618 3.96156 41.3618 4.48336C41.3618 5.00516 41.2474 5.45805 41.0185 5.84201C40.7947 6.22598 40.4738 6.52134 40.0559 6.72809C39.6429 6.92992 39.1603 7.03083 38.6081 7.03083H36.9141V1.89898H38.6081ZM38.6081 6.34412C39.2151 6.34412 39.6802 6.18168 40.0036 5.85678C40.327 5.53189 40.4887 5.07408 40.4887 4.48336C40.4887 3.88772 40.327 3.42253 40.0036 3.08779C39.6802 2.75305 39.2151 2.58568 38.6081 2.58568H37.7648V6.34412H38.6081Z" fill="black"/>
<path d="M43.4289 1.89898V7.03083H42.5781V1.89898H43.4289Z" fill="black"/>
<path d="M46.6279 7.08252C46.2796 7.08252 45.9662 7.02345 45.6876 6.9053C45.409 6.78224 45.1901 6.60995 45.0309 6.38843C44.8717 6.16691 44.7921 5.90847 44.7921 5.61311H45.7025C45.7224 5.83463 45.8095 6.01677 45.9637 6.15952C46.1229 6.30228 46.3443 6.37366 46.6279 6.37366C46.9214 6.37366 47.1503 6.30474 47.3145 6.16691C47.4786 6.02415 47.5607 5.84201 47.5607 5.62049C47.5607 5.4482 47.5085 5.30791 47.404 5.19961C47.3045 5.09131 47.1777 5.00763 47.0234 4.94855C46.8742 4.88948 46.6652 4.82549 46.3966 4.75657C46.0583 4.66796 45.7821 4.57936 45.5682 4.49075C45.3592 4.39722 45.1801 4.25446 45.0309 4.06248C44.8816 3.87049 44.807 3.61452 44.807 3.29454C44.807 2.99919 44.8816 2.74075 45.0309 2.51923C45.1801 2.29771 45.3891 2.12788 45.6578 2.00973C45.9264 1.89159 46.2374 1.83252 46.5906 1.83252C47.0931 1.83252 47.5035 1.95805 47.8219 2.2091C48.1453 2.45523 48.3244 2.7949 48.3592 3.22809H47.4189C47.404 3.04103 47.3145 2.88104 47.1503 2.74813C46.9861 2.61522 46.7697 2.54876 46.501 2.54876C46.2573 2.54876 46.0583 2.6103 45.904 2.73336C45.7498 2.85643 45.6727 3.03364 45.6727 3.26501C45.6727 3.42253 45.7199 3.55298 45.8145 3.65636C45.914 3.75481 46.0384 3.83357 46.1876 3.89265C46.3369 3.95172 46.5408 4.01571 46.7995 4.08463C47.1428 4.17816 47.4214 4.27169 47.6354 4.36522C47.8543 4.45875 48.0384 4.60397 48.1876 4.80087C48.3418 4.99286 48.4189 5.2513 48.4189 5.57619C48.4189 5.83709 48.3468 6.08322 48.2025 6.31459C48.0632 6.54595 47.8568 6.73301 47.5831 6.87577C47.3145 7.0136 46.9961 7.08252 46.6279 7.08252Z" fill="black"/>
<path d="M53.4228 3.42746C53.4228 3.68836 53.3606 3.93449 53.2362 4.16585C53.1118 4.39722 52.9128 4.58674 52.6392 4.73442C52.3656 4.87717 52.0148 4.94855 51.587 4.94855H50.6467V7.03083H49.7959V1.89898H51.587C51.985 1.89898 52.3208 1.96789 52.5944 2.10573C52.873 2.23864 53.0795 2.42078 53.2138 2.65214C53.3531 2.8835 53.4228 3.14194 53.4228 3.42746ZM51.587 4.26184C51.9104 4.26184 52.1516 4.19047 52.3109 4.04771C52.4701 3.90003 52.5497 3.69328 52.5497 3.42746C52.5497 2.86627 52.2288 2.58568 51.587 2.58568H50.6467V4.26184H51.587Z" fill="black"/>
<path d="M56.973 7.08252C56.4904 7.08252 56.0451 6.97176 55.6372 6.75024C55.2342 6.5238 54.9133 6.21121 54.6745 5.81248C54.4407 5.40882 54.3237 4.95594 54.3237 4.45383C54.3237 3.95172 54.4407 3.5013 54.6745 3.10256C54.9133 2.70383 55.2342 2.3937 55.6372 2.17218C56.0451 1.94574 56.4904 1.83252 56.973 1.83252C57.4605 1.83252 57.9058 1.94574 58.3088 2.17218C58.7168 2.3937 59.0377 2.70383 59.2715 3.10256C59.5053 3.5013 59.6222 3.95172 59.6222 4.45383C59.6222 4.95594 59.5053 5.40882 59.2715 5.81248C59.0377 6.21121 58.7168 6.5238 58.3088 6.75024C57.9058 6.97176 57.4605 7.08252 56.973 7.08252ZM56.973 6.35151C57.3163 6.35151 57.6222 6.27521 57.8909 6.1226C58.1596 5.96508 58.3685 5.74356 58.5178 5.45805C58.672 5.16761 58.7491 4.83287 58.7491 4.45383C58.7491 4.07478 58.672 3.74251 58.5178 3.45699C58.3685 3.17148 58.1596 2.95242 57.8909 2.79982C57.6222 2.64722 57.3163 2.57092 56.973 2.57092C56.6297 2.57092 56.3237 2.64722 56.0551 2.79982C55.7864 2.95242 55.575 3.17148 55.4207 3.45699C55.2715 3.74251 55.1969 4.07478 55.1969 4.45383C55.1969 4.83287 55.2715 5.16761 55.4207 5.45805C55.575 5.74356 55.7864 5.96508 56.0551 6.1226C56.3237 6.27521 56.6297 6.35151 56.973 6.35151Z" fill="black"/>
<path d="M65.0937 7.03083H64.243L61.6833 3.19855V7.03083H60.8325V1.89159H61.6833L64.243 5.71649V1.89159H65.0937V7.03083Z" fill="black"/>
<path d="M67.4348 1.89898V7.03083H66.584V1.89898H67.4348ZM67.7781 0.798764L66.1288 1.60362V0.983363L67.7781 0.0825195V0.798764Z" fill="black"/>
<path d="M73.395 1.89898L71.4473 7.03083H70.4622L68.507 1.89898H69.4174L70.9547 6.16691L72.4995 1.89898H73.395Z" fill="black"/>
<path d="M75.3304 2.5783V4.08463H77.1214V4.77134H75.3304V6.34412H77.3453V7.03083H74.4796V1.89159H77.3453V2.5783H75.3304Z" fill="black"/>
<path d="M79.617 6.35151H81.3708V7.03083H78.7663V1.89898H79.617V6.35151Z" fill="black"/>
<path d="M89.0282 7.03083H88.1775L85.6178 3.19855V7.03083H84.767V1.89159H85.6178L88.1775 5.71649V1.89159H89.0282V7.03083Z" fill="black"/>
<path d="M93.6454 5.98231H91.4738L91.1006 7.03083H90.2126L92.0708 1.89159H93.0559L94.9141 7.03083H94.0185L93.6454 5.98231ZM93.4066 5.2956L92.5633 2.91058L91.7126 5.2956H93.4066Z" fill="black"/>
<path d="M38.6081 1.89898C39.1603 1.89898 39.6429 2.00481 40.0559 2.21649C40.4738 2.42324 40.7947 2.72352 41.0185 3.11733C41.2474 3.50622 41.3618 3.96156 41.3618 4.48336C41.3618 5.00516 41.2474 5.45805 41.0185 5.84201C40.7947 6.22598 40.4738 6.52134 40.0559 6.72809C39.6429 6.92992 39.1603 7.03083 38.6081 7.03083H36.9141V1.89898H38.6081ZM38.6081 6.34412C39.2151 6.34412 39.6802 6.18168 40.0036 5.85678C40.327 5.53189 40.4887 5.07408 40.4887 4.48336C40.4887 3.88772 40.327 3.42253 40.0036 3.08779C39.6802 2.75305 39.2151 2.58568 38.6081 2.58568H37.7648V6.34412H38.6081Z" stroke="#19191A" stroke-width="0.0979686" mask="url(#path-3-outside-1_4176_214)"/>
<path d="M43.4289 1.89898V7.03083H42.5781V1.89898H43.4289Z" stroke="#19191A" stroke-width="0.0979686" mask="url(#path-3-outside-1_4176_214)"/>
<path d="M46.6279 7.08252C46.2796 7.08252 45.9662 7.02345 45.6876 6.9053C45.409 6.78224 45.1901 6.60995 45.0309 6.38843C44.8717 6.16691 44.7921 5.90847 44.7921 5.61311H45.7025C45.7224 5.83463 45.8095 6.01677 45.9637 6.15952C46.1229 6.30228 46.3443 6.37366 46.6279 6.37366C46.9214 6.37366 47.1503 6.30474 47.3145 6.16691C47.4786 6.02415 47.5607 5.84201 47.5607 5.62049C47.5607 5.4482 47.5085 5.30791 47.404 5.19961C47.3045 5.09131 47.1777 5.00763 47.0234 4.94855C46.8742 4.88948 46.6652 4.82549 46.3966 4.75657C46.0583 4.66796 45.7821 4.57936 45.5682 4.49075C45.3592 4.39722 45.1801 4.25446 45.0309 4.06248C44.8816 3.87049 44.807 3.61452 44.807 3.29454C44.807 2.99919 44.8816 2.74075 45.0309 2.51923C45.1801 2.29771 45.3891 2.12788 45.6578 2.00973C45.9264 1.89159 46.2374 1.83252 46.5906 1.83252C47.0931 1.83252 47.5035 1.95805 47.8219 2.2091C48.1453 2.45523 48.3244 2.7949 48.3592 3.22809H47.4189C47.404 3.04103 47.3145 2.88104 47.1503 2.74813C46.9861 2.61522 46.7697 2.54876 46.501 2.54876C46.2573 2.54876 46.0583 2.6103 45.904 2.73336C45.7498 2.85643 45.6727 3.03364 45.6727 3.26501C45.6727 3.42253 45.7199 3.55298 45.8145 3.65636C45.914 3.75481 46.0384 3.83357 46.1876 3.89265C46.3369 3.95172 46.5408 4.01571 46.7995 4.08463C47.1428 4.17816 47.4214 4.27169 47.6354 4.36522C47.8543 4.45875 48.0384 4.60397 48.1876 4.80087C48.3418 4.99286 48.4189 5.2513 48.4189 5.57619C48.4189 5.83709 48.3468 6.08322 48.2025 6.31459C48.0632 6.54595 47.8568 6.73301 47.5831 6.87577C47.3145 7.0136 46.9961 7.08252 46.6279 7.08252Z" stroke="#19191A" stroke-width="0.0979686" mask="url(#path-3-outside-1_4176_214)"/>
<path d="M53.4228 3.42746C53.4228 3.68836 53.3606 3.93449 53.2362 4.16585C53.1118 4.39722 52.9128 4.58674 52.6392 4.73442C52.3656 4.87717 52.0148 4.94855 51.587 4.94855H50.6467V7.03083H49.7959V1.89898H51.587C51.985 1.89898 52.3208 1.96789 52.5944 2.10573C52.873 2.23864 53.0795 2.42078 53.2138 2.65214C53.3531 2.8835 53.4228 3.14194 53.4228 3.42746ZM51.587 4.26184C51.9104 4.26184 52.1516 4.19047 52.3109 4.04771C52.4701 3.90003 52.5497 3.69328 52.5497 3.42746C52.5497 2.86627 52.2288 2.58568 51.587 2.58568H50.6467V4.26184H51.587Z" stroke="#19191A" stroke-width="0.0979686" mask="url(#path-3-outside-1_4176_214)"/>
<path d="M56.973 7.08252C56.4904 7.08252 56.0451 6.97176 55.6372 6.75024C55.2342 6.5238 54.9133 6.21121 54.6745 5.81248C54.4407 5.40882 54.3237 4.95594 54.3237 4.45383C54.3237 3.95172 54.4407 3.5013 54.6745 3.10256C54.9133 2.70383 55.2342 2.3937 55.6372 2.17218C56.0451 1.94574 56.4904 1.83252 56.973 1.83252C57.4605 1.83252 57.9058 1.94574 58.3088 2.17218C58.7168 2.3937 59.0377 2.70383 59.2715 3.10256C59.5053 3.5013 59.6222 3.95172 59.6222 4.45383C59.6222 4.95594 59.5053 5.40882 59.2715 5.81248C59.0377 6.21121 58.7168 6.5238 58.3088 6.75024C57.9058 6.97176 57.4605 7.08252 56.973 7.08252ZM56.973 6.35151C57.3163 6.35151 57.6222 6.27521 57.8909 6.1226C58.1596 5.96508 58.3685 5.74356 58.5178 5.45805C58.672 5.16761 58.7491 4.83287 58.7491 4.45383C58.7491 4.07478 58.672 3.74251 58.5178 3.45699C58.3685 3.17148 58.1596 2.95242 57.8909 2.79982C57.6222 2.64722 57.3163 2.57092 56.973 2.57092C56.6297 2.57092 56.3237 2.64722 56.0551 2.79982C55.7864 2.95242 55.575 3.17148 55.4207 3.45699C55.2715 3.74251 55.1969 4.07478 55.1969 4.45383C55.1969 4.83287 55.2715 5.16761 55.4207 5.45805C55.575 5.74356 55.7864 5.96508 56.0551 6.1226C56.3237 6.27521 56.6297 6.35151 56.973 6.35151Z" stroke="#19191A" stroke-width="0.0979686" mask="url(#path-3-outside-1_4176_214)"/>
<path d="M65.0937 7.03083H64.243L61.6833 3.19855V7.03083H60.8325V1.89159H61.6833L64.243 5.71649V1.89159H65.0937V7.03083Z" stroke="#19191A" stroke-width="0.0979686" mask="url(#path-3-outside-1_4176_214)"/>
<path d="M67.4348 1.89898V7.03083H66.584V1.89898H67.4348ZM67.7781 0.798764L66.1288 1.60362V0.983363L67.7781 0.0825195V0.798764Z" stroke="#19191A" stroke-width="0.0979686" mask="url(#path-3-outside-1_4176_214)"/>
<path d="M73.395 1.89898L71.4473 7.03083H70.4622L68.507 1.89898H69.4174L70.9547 6.16691L72.4995 1.89898H73.395Z" stroke="#19191A" stroke-width="0.0979686" mask="url(#path-3-outside-1_4176_214)"/>
<path d="M75.3304 2.5783V4.08463H77.1214V4.77134H75.3304V6.34412H77.3453V7.03083H74.4796V1.89159H77.3453V2.5783H75.3304Z" stroke="#19191A" stroke-width="0.0979686" mask="url(#path-3-outside-1_4176_214)"/>
<path d="M79.617 6.35151H81.3708V7.03083H78.7663V1.89898H79.617V6.35151Z" stroke="#19191A" stroke-width="0.0979686" mask="url(#path-3-outside-1_4176_214)"/>
<path d="M89.0282 7.03083H88.1775L85.6178 3.19855V7.03083H84.767V1.89159H85.6178L88.1775 5.71649V1.89159H89.0282V7.03083Z" stroke="#19191A" stroke-width="0.0979686" mask="url(#path-3-outside-1_4176_214)"/>
<path d="M93.6454 5.98231H91.4738L91.1006 7.03083H90.2126L92.0708 1.89159H93.0559L94.9141 7.03083H94.0185L93.6454 5.98231ZM93.4066 5.2956L92.5633 2.91058L91.7126 5.2956H93.4066Z" stroke="#19191A" stroke-width="0.0979686" mask="url(#path-3-outside-1_4176_214)"/>
<mask id="path-4-inside-2_4176_214" fill="white">
<path d="M82.4963 23.6549C80.6451 23.6549 79.2904 22.7232 79.1344 21.3041L76.9801 21.304C77.1162 23.8923 79.2218 25.5297 82.3403 25.5297C85.6735 25.5297 87.7691 23.8529 87.7691 21.1757C87.7691 19.0826 86.5703 17.9032 83.6851 17.2089L82.1358 16.8218C80.3232 16.3661 79.5823 15.7707 79.5823 14.7591C79.5823 13.4897 80.7424 12.6175 82.4377 12.6175C84.133 12.6175 85.2931 13.4795 85.4202 14.9076H87.5446C87.4761 12.4386 85.439 10.7427 82.4675 10.7427C79.4651 10.7427 77.3506 12.4386 77.3506 14.9076C77.3506 16.9017 78.5494 18.1306 81.1317 18.7653L82.9541 19.2121C84.7766 19.6678 85.5463 20.3329 85.5463 21.4436C85.5463 22.7232 84.2701 23.6549 82.4963 23.6549Z"/>
<path fill-rule="evenodd" clip-rule="evenodd" d="M40.4717 21.4234H45.8319L47.118 25.2913H49.4271L44.35 10.9813H41.9912L36.9141 25.2913H39.1844L40.4717 21.4234ZM45.2757 19.6386H41.0268L43.1225 13.3614H43.1811L45.2757 19.6386Z"/>
<path fill-rule="evenodd" clip-rule="evenodd" d="M56.1135 25.4004C58.6869 25.4004 60.3922 23.3174 60.3922 20.0752C60.3922 16.8421 58.6769 14.749 56.0748 14.749C55.4177 14.7274 54.767 14.8875 54.1922 15.2123C53.6173 15.5371 53.1398 16.0144 52.8103 16.5934H52.7716V14.8581H50.7345V28.7427H52.839V23.5751H52.8877C53.2027 24.1569 53.6723 24.6366 54.2428 24.9595C54.8133 25.2823 55.4617 25.4351 56.1135 25.4004ZM55.5197 16.5743C57.1564 16.5743 58.2291 17.963 58.2291 20.0752C58.2291 22.2067 57.1564 23.5852 55.5197 23.5852C53.9117 23.5852 52.8302 22.1774 52.8302 20.0752C52.8302 17.9922 53.9117 16.5743 55.5197 16.5743Z"/>
<path fill-rule="evenodd" clip-rule="evenodd" d="M71.6765 20.0753C71.6765 23.3174 69.9712 25.4004 67.3978 25.4004C66.7459 25.4351 66.0976 25.2823 65.5271 24.9595C64.9566 24.6367 64.487 24.1569 64.172 23.5751H64.1233V28.7427H62.0188V14.8581H64.0558V16.5934H64.0945C64.424 16.0144 64.9016 15.5371 65.4764 15.2123C66.0513 14.8875 66.7019 14.7274 67.3591 14.749C69.9613 14.749 71.6765 16.8421 71.6765 20.0753ZM69.5134 20.0753C69.5134 17.963 68.4407 16.5743 66.804 16.5743C65.196 16.5743 64.1145 17.9922 64.1145 20.0753C64.1145 22.1774 65.196 23.5852 66.804 23.5852C68.4407 23.5852 69.5134 22.2067 69.5134 20.0753Z"/>
<path d="M92.3107 12.3891V14.8581H94.2604V16.554H92.3107V22.3057C92.3107 23.1992 92.7011 23.6156 93.5581 23.6156C93.7896 23.6115 94.0207 23.595 94.2504 23.566V25.2518C93.8651 25.3251 93.4734 25.3583 93.0815 25.3509C91.0058 25.3509 90.1963 24.5575 90.1963 22.5341V16.554H88.7055V14.8581H90.1962V12.3891H92.3107Z"/>
<path fill-rule="evenodd" clip-rule="evenodd" d="M100.253 14.7298C97.2899 14.7298 95.39 16.7926 95.39 20.0753C95.39 23.3669 97.271 25.4207 100.253 25.4207C103.235 25.4207 105.116 23.3669 105.116 20.0753C105.116 16.7926 103.225 14.7298 100.253 14.7298ZM100.253 16.4944C101.958 16.4944 102.972 17.8234 102.972 20.0753C102.972 22.3361 101.958 23.655 100.253 23.655C98.5473 23.655 97.5343 22.3361 97.5343 20.0753C97.5343 17.8336 98.5473 16.4944 100.253 16.4944Z"/>
<path d="M106.851 14.8581H108.858V16.6339H108.907C109.043 16.0793 109.362 15.5892 109.811 15.2459C110.26 14.9026 110.812 14.7271 111.373 14.749C111.616 14.7481 111.858 14.7749 112.094 14.8289V16.832C111.788 16.7368 111.469 16.6931 111.149 16.7026C110.843 16.6899 110.538 16.7448 110.255 16.8634C109.972 16.9819 109.718 17.1614 109.51 17.3894C109.301 17.6175 109.144 17.8887 109.048 18.1845C108.953 18.4802 108.921 18.7936 108.956 19.1029V25.2912H106.851L106.851 14.8581Z"/>
<path fill-rule="evenodd" clip-rule="evenodd" d="M117.382 25.4207C119.701 25.4207 121.514 24.1209 121.797 22.2269L119.799 22.2269C119.612 22.6983 119.28 23.0958 118.854 23.3602C118.427 23.6246 117.928 23.7418 117.431 23.6944C117.052 23.7085 116.675 23.6406 116.324 23.4951C115.974 23.3495 115.657 23.1297 115.396 22.8502C115.136 22.5707 114.936 22.2379 114.811 21.8739C114.687 21.51 114.639 21.1232 114.673 20.7392V20.6098H121.914V19.8761C121.914 16.7127 120.13 14.7298 117.294 14.7298C114.41 14.7298 112.548 16.8523 112.548 20.1248C112.548 23.3871 114.4 25.4207 117.382 25.4207ZM119.808 19.1131H114.683C114.682 18.7643 114.749 18.4189 114.88 18.0966C115.011 17.7744 115.203 17.4817 115.446 17.2355C115.689 16.9893 115.977 16.7945 116.294 16.6623C116.611 16.5301 116.951 16.4631 117.294 16.4651C117.633 16.4577 117.971 16.5218 118.285 16.6534C118.599 16.7851 118.883 16.9813 119.12 17.23C119.356 17.4786 119.539 17.7742 119.657 18.0983C119.776 18.4223 119.827 18.7678 119.808 19.1131Z"/>
</mask>
<path d="M82.4963 23.6549C80.6451 23.6549 79.2904 22.7232 79.1344 21.3041L76.9801 21.304C77.1162 23.8923 79.2218 25.5297 82.3403 25.5297C85.6735 25.5297 87.7691 23.8529 87.7691 21.1757C87.7691 19.0826 86.5703 17.9032 83.6851 17.2089L82.1358 16.8218C80.3232 16.3661 79.5823 15.7707 79.5823 14.7591C79.5823 13.4897 80.7424 12.6175 82.4377 12.6175C84.133 12.6175 85.2931 13.4795 85.4202 14.9076H87.5446C87.4761 12.4386 85.439 10.7427 82.4675 10.7427C79.4651 10.7427 77.3506 12.4386 77.3506 14.9076C77.3506 16.9017 78.5494 18.1306 81.1317 18.7653L82.9541 19.2121C84.7766 19.6678 85.5463 20.3329 85.5463 21.4436C85.5463 22.7232 84.2701 23.6549 82.4963 23.6549Z" fill="black"/>
<path fill-rule="evenodd" clip-rule="evenodd" d="M40.4717 21.4234H45.8319L47.118 25.2913H49.4271L44.35 10.9813H41.9912L36.9141 25.2913H39.1844L40.4717 21.4234ZM45.2757 19.6386H41.0268L43.1225 13.3614H43.1811L45.2757 19.6386Z" fill="black"/>
<path fill-rule="evenodd" clip-rule="evenodd" d="M56.1135 25.4004C58.6869 25.4004 60.3922 23.3174 60.3922 20.0752C60.3922 16.8421 58.6769 14.749 56.0748 14.749C55.4177 14.7274 54.767 14.8875 54.1922 15.2123C53.6173 15.5371 53.1398 16.0144 52.8103 16.5934H52.7716V14.8581H50.7345V28.7427H52.839V23.5751H52.8877C53.2027 24.1569 53.6723 24.6366 54.2428 24.9595C54.8133 25.2823 55.4617 25.4351 56.1135 25.4004ZM55.5197 16.5743C57.1564 16.5743 58.2291 17.963 58.2291 20.0752C58.2291 22.2067 57.1564 23.5852 55.5197 23.5852C53.9117 23.5852 52.8302 22.1774 52.8302 20.0752C52.8302 17.9922 53.9117 16.5743 55.5197 16.5743Z" fill="black"/>
<path fill-rule="evenodd" clip-rule="evenodd" d="M71.6765 20.0753C71.6765 23.3174 69.9712 25.4004 67.3978 25.4004C66.7459 25.4351 66.0976 25.2823 65.5271 24.9595C64.9566 24.6367 64.487 24.1569 64.172 23.5751H64.1233V28.7427H62.0188V14.8581H64.0558V16.5934H64.0945C64.424 16.0144 64.9016 15.5371 65.4764 15.2123C66.0513 14.8875 66.7019 14.7274 67.3591 14.749C69.9613 14.749 71.6765 16.8421 71.6765 20.0753ZM69.5134 20.0753C69.5134 17.963 68.4407 16.5743 66.804 16.5743C65.196 16.5743 64.1145 17.9922 64.1145 20.0753C64.1145 22.1774 65.196 23.5852 66.804 23.5852C68.4407 23.5852 69.5134 22.2067 69.5134 20.0753Z" fill="black"/>
<path d="M92.3107 12.3891V14.8581H94.2604V16.554H92.3107V22.3057C92.3107 23.1992 92.7011 23.6156 93.5581 23.6156C93.7896 23.6115 94.0207 23.595 94.2504 23.566V25.2518C93.8651 25.3251 93.4734 25.3583 93.0815 25.3509C91.0058 25.3509 90.1963 24.5575 90.1963 22.5341V16.554H88.7055V14.8581H90.1962V12.3891H92.3107Z" fill="black"/>
<path fill-rule="evenodd" clip-rule="evenodd" d="M100.253 14.7298C97.2899 14.7298 95.39 16.7926 95.39 20.0753C95.39 23.3669 97.271 25.4207 100.253 25.4207C103.235 25.4207 105.116 23.3669 105.116 20.0753C105.116 16.7926 103.225 14.7298 100.253 14.7298ZM100.253 16.4944C101.958 16.4944 102.972 17.8234 102.972 20.0753C102.972 22.3361 101.958 23.655 100.253 23.655C98.5473 23.655 97.5343 22.3361 97.5343 20.0753C97.5343 17.8336 98.5473 16.4944 100.253 16.4944Z" fill="black"/>
<path d="M106.851 14.8581H108.858V16.6339H108.907C109.043 16.0793 109.362 15.5892 109.811 15.2459C110.26 14.9026 110.812 14.7271 111.373 14.749C111.616 14.7481 111.858 14.7749 112.094 14.8289V16.832C111.788 16.7368 111.469 16.6931 111.149 16.7026C110.843 16.6899 110.538 16.7448 110.255 16.8634C109.972 16.9819 109.718 17.1614 109.51 17.3894C109.301 17.6175 109.144 17.8887 109.048 18.1845C108.953 18.4802 108.921 18.7936 108.956 19.1029V25.2912H106.851L106.851 14.8581Z" fill="black"/>
<path fill-rule="evenodd" clip-rule="evenodd" d="M117.382 25.4207C119.701 25.4207 121.514 24.1209 121.797 22.2269L119.799 22.2269C119.612 22.6983 119.28 23.0958 118.854 23.3602C118.427 23.6246 117.928 23.7418 117.431 23.6944C117.052 23.7085 116.675 23.6406 116.324 23.4951C115.974 23.3495 115.657 23.1297 115.396 22.8502C115.136 22.5707 114.936 22.2379 114.811 21.8739C114.687 21.51 114.639 21.1232 114.673 20.7392V20.6098H121.914V19.8761C121.914 16.7127 120.13 14.7298 117.294 14.7298C114.41 14.7298 112.548 16.8523 112.548 20.1248C112.548 23.3871 114.4 25.4207 117.382 25.4207ZM119.808 19.1131H114.683C114.682 18.7643 114.749 18.4189 114.88 18.0966C115.011 17.7744 115.203 17.4817 115.446 17.2355C115.689 16.9893 115.977 16.7945 116.294 16.6623C116.611 16.5301 116.951 16.4631 117.294 16.4651C117.633 16.4577 117.971 16.5218 118.285 16.6534C118.599 16.7851 118.883 16.9813 119.12 17.23C119.356 17.4786 119.539 17.7742 119.657 18.0983C119.776 18.4223 119.827 18.7678 119.808 19.1131Z" fill="black"/>
<path d="M82.4963 23.6549C80.6451 23.6549 79.2904 22.7232 79.1344 21.3041L76.9801 21.304C77.1162 23.8923 79.2218 25.5297 82.3403 25.5297C85.6735 25.5297 87.7691 23.8529 87.7691 21.1757C87.7691 19.0826 86.5703 17.9032 83.6851 17.2089L82.1358 16.8218C80.3232 16.3661 79.5823 15.7707 79.5823 14.7591C79.5823 13.4897 80.7424 12.6175 82.4377 12.6175C84.133 12.6175 85.2931 13.4795 85.4202 14.9076H87.5446C87.4761 12.4386 85.439 10.7427 82.4675 10.7427C79.4651 10.7427 77.3506 12.4386 77.3506 14.9076C77.3506 16.9017 78.5494 18.1306 81.1317 18.7653L82.9541 19.2121C84.7766 19.6678 85.5463 20.3329 85.5463 21.4436C85.5463 22.7232 84.2701 23.6549 82.4963 23.6549Z" stroke="#19191A" stroke-width="2.25874" mask="url(#path-4-inside-2_4176_214)"/>
<path fill-rule="evenodd" clip-rule="evenodd" d="M40.4717 21.4234H45.8319L47.118 25.2913H49.4271L44.35 10.9813H41.9912L36.9141 25.2913H39.1844L40.4717 21.4234ZM45.2757 19.6386H41.0268L43.1225 13.3614H43.1811L45.2757 19.6386Z" stroke="#19191A" stroke-width="2.25874" mask="url(#path-4-inside-2_4176_214)"/>
<path fill-rule="evenodd" clip-rule="evenodd" d="M56.1135 25.4004C58.6869 25.4004 60.3922 23.3174 60.3922 20.0752C60.3922 16.8421 58.6769 14.749 56.0748 14.749C55.4177 14.7274 54.767 14.8875 54.1922 15.2123C53.6173 15.5371 53.1398 16.0144 52.8103 16.5934H52.7716V14.8581H50.7345V28.7427H52.839V23.5751H52.8877C53.2027 24.1569 53.6723 24.6366 54.2428 24.9595C54.8133 25.2823 55.4617 25.4351 56.1135 25.4004ZM55.5197 16.5743C57.1564 16.5743 58.2291 17.963 58.2291 20.0752C58.2291 22.2067 57.1564 23.5852 55.5197 23.5852C53.9117 23.5852 52.8302 22.1774 52.8302 20.0752C52.8302 17.9922 53.9117 16.5743 55.5197 16.5743Z" stroke="#19191A" stroke-width="2.25874" mask="url(#path-4-inside-2_4176_214)"/>
<path fill-rule="evenodd" clip-rule="evenodd" d="M71.6765 20.0753C71.6765 23.3174 69.9712 25.4004 67.3978 25.4004C66.7459 25.4351 66.0976 25.2823 65.5271 24.9595C64.9566 24.6367 64.487 24.1569 64.172 23.5751H64.1233V28.7427H62.0188V14.8581H64.0558V16.5934H64.0945C64.424 16.0144 64.9016 15.5371 65.4764 15.2123C66.0513 14.8875 66.7019 14.7274 67.3591 14.749C69.9613 14.749 71.6765 16.8421 71.6765 20.0753ZM69.5134 20.0753C69.5134 17.963 68.4407 16.5743 66.804 16.5743C65.196 16.5743 64.1145 17.9922 64.1145 20.0753C64.1145 22.1774 65.196 23.5852 66.804 23.5852C68.4407 23.5852 69.5134 22.2067 69.5134 20.0753Z" stroke="#19191A" stroke-width="2.25874" mask="url(#path-4-inside-2_4176_214)"/>
<path d="M92.3107 12.3891V14.8581H94.2604V16.554H92.3107V22.3057C92.3107 23.1992 92.7011 23.6156 93.5581 23.6156C93.7896 23.6115 94.0207 23.595 94.2504 23.566V25.2518C93.8651 25.3251 93.4734 25.3583 93.0815 25.3509C91.0058 25.3509 90.1963 24.5575 90.1963 22.5341V16.554H88.7055V14.8581H90.1962V12.3891H92.3107Z" stroke="#19191A" stroke-width="2.25874" mask="url(#path-4-inside-2_4176_214)"/>
<path fill-rule="evenodd" clip-rule="evenodd" d="M100.253 14.7298C97.2899 14.7298 95.39 16.7926 95.39 20.0753C95.39 23.3669 97.271 25.4207 100.253 25.4207C103.235 25.4207 105.116 23.3669 105.116 20.0753C105.116 16.7926 103.225 14.7298 100.253 14.7298ZM100.253 16.4944C101.958 16.4944 102.972 17.8234 102.972 20.0753C102.972 22.3361 101.958 23.655 100.253 23.655C98.5473 23.655 97.5343 22.3361 97.5343 20.0753C97.5343 17.8336 98.5473 16.4944 100.253 16.4944Z" stroke="#19191A" stroke-width="2.25874" mask="url(#path-4-inside-2_4176_214)"/>
<path d="M106.851 14.8581H108.858V16.6339H108.907C109.043 16.0793 109.362 15.5892 109.811 15.2459C110.26 14.9026 110.812 14.7271 111.373 14.749C111.616 14.7481 111.858 14.7749 112.094 14.8289V16.832C111.788 16.7368 111.469 16.6931 111.149 16.7026C110.843 16.6899 110.538 16.7448 110.255 16.8634C109.972 16.9819 109.718 17.1614 109.51 17.3894C109.301 17.6175 109.144 17.8887 109.048 18.1845C108.953 18.4802 108.921 18.7936 108.956 19.1029V25.2912H106.851L106.851 14.8581Z" stroke="#19191A" stroke-width="2.25874" mask="url(#path-4-inside-2_4176_214)"/>
<path fill-rule="evenodd" clip-rule="evenodd" d="M117.382 25.4207C119.701 25.4207 121.514 24.1209 121.797 22.2269L119.799 22.2269C119.612 22.6983 119.28 23.0958 118.854 23.3602C118.427 23.6246 117.928 23.7418 117.431 23.6944C117.052 23.7085 116.675 23.6406 116.324 23.4951C115.974 23.3495 115.657 23.1297 115.396 22.8502C115.136 22.5707 114.936 22.2379 114.811 21.8739C114.687 21.51 114.639 21.1232 114.673 20.7392V20.6098H121.914V19.8761C121.914 16.7127 120.13 14.7298 117.294 14.7298C114.41 14.7298 112.548 16.8523 112.548 20.1248C112.548 23.3871 114.4 25.4207 117.382 25.4207ZM119.808 19.1131H114.683C114.682 18.7643 114.749 18.4189 114.88 18.0966C115.011 17.7744 115.203 17.4817 115.446 17.2355C115.689 16.9893 115.977 16.7945 116.294 16.6623C116.611 16.5301 116.951 16.4631 117.294 16.4651C117.633 16.4577 117.971 16.5218 118.285 16.6534C118.599 16.7851 118.883 16.9813 119.12 17.23C119.356 17.4786 119.539 17.7742 119.657 18.0983C119.776 18.4223 119.827 18.7678 119.808 19.1131Z" stroke="#19191A" stroke-width="2.25874" mask="url(#path-4-inside-2_4176_214)"/>
<defs>
<linearGradient id="paint0_linear_4176_214" x1="14" y1="27.8689" x2="14" y2="0.0891196" gradientUnits="userSpaceOnUse">
<stop stop-color="#111111"/>
<stop offset="1" stop-color="#333333"/>
</linearGradient>
</defs>
</svg>
