<svg width="128" height="30" viewBox="0 0 128 30" fill="none" xmlns="http://www.w3.org/2000/svg">
<path d="M6.35871 5.13608C6.10651 5.43261 5.97921 5.81222 6.00277 6.19753V22.9685C5.97921 23.3538 6.10651 23.7334 6.35871 24.0299L6.41288 24.083L16 14.6967V14.4769L6.41288 5.08301L6.35871 5.13608Z" fill="#01D5FF"/>
<path d="M19.2315 19.083L16 15.7057V15.4685L19.2315 12.083L19.3025 12.1239L23.1724 14.4054C24.2759 15.0515 24.2759 16.1146 23.1724 16.7688L19.3182 19.0421L19.2315 19.083Z" fill="url(#paint0_linear_4176_231)"/>
<path d="M18.9922 18.363L15.7052 15.083L6 24.7676C6.22227 24.9626 6.50582 25.074 6.80164 25.0825C7.09746 25.091 7.38697 24.9961 7.62013 24.8143L19 18.363" fill="url(#paint1_linear_4176_231)"/>
<path d="M19 11.803L7.62013 5.35176C7.38697 5.16989 7.09746 5.07502 6.80164 5.08353C6.50582 5.09205 6.22227 5.20342 6 5.3984L15.713 15.083L19 11.803Z" fill="#01F177"/>
<g opacity="0.2">
<mask id="path-5-inside-1_4176_231" fill="white">
<path d="M18.9065 18.083L7.61331 24.7019C7.3883 24.8751 7.11489 24.9687 6.83393 24.9687C6.55298 24.9687 6.27957 24.8751 6.05456 24.7019L6 24.7581L6.05456 24.8142C6.27906 24.9887 6.55267 25.083 6.83393 25.083C7.1152 25.083 7.38881 24.9887 7.61331 24.8142L19 18.1552L18.9065 18.083Z"/>
</mask>
<path d="M18.9065 18.083L7.61331 24.7019C7.3883 24.8751 7.11489 24.9687 6.83393 24.9687C6.55298 24.9687 6.27957 24.8751 6.05456 24.7019L6 24.7581L6.05456 24.8142C6.27906 24.9887 6.55267 25.083 6.83393 25.083C7.1152 25.083 7.38881 24.9887 7.61331 24.8142L19 18.1552L18.9065 18.083Z" fill="black"/>
<path d="M18.9065 18.083L19.3768 17.4738L18.9656 17.1563L18.5173 17.419L18.9065 18.083ZM7.61331 24.7019L7.22416 24.0379L7.18233 24.0625L7.14391 24.092L7.61331 24.7019ZM6.83393 24.9687V24.1991V24.9687ZM6.05456 24.7019L6.52396 24.092L5.98043 23.6737L5.50253 24.1657L6.05456 24.7019ZM6 24.7581L5.44798 24.2218L4.92703 24.7581L5.44798 25.2943L6 24.7581ZM6.05456 24.8142L5.50253 25.3505L5.53996 25.389L5.58239 25.422L6.05456 24.8142ZM6.83393 25.083V24.3134V25.083ZM7.61331 24.8142L7.22479 24.1499L7.18111 24.1754L7.14114 24.2065L7.61331 24.8142ZM19 18.1552L19.3885 18.8196L20.3736 18.2435L19.4703 17.546L19 18.1552ZM18.9065 18.083L18.5173 17.419L7.22416 24.0379L7.61331 24.7019L8.00246 25.3659L19.2956 18.747L18.9065 18.083ZM7.61331 24.7019L7.14391 24.092C7.05191 24.1628 6.94314 24.1991 6.83393 24.1991V24.9687V25.7383C7.28663 25.7383 7.72468 25.5874 8.08271 25.3118L7.61331 24.7019ZM6.83393 24.9687V24.1991C6.72473 24.1991 6.61596 24.1628 6.52396 24.092L6.05456 24.7019L5.58516 25.3118C5.94318 25.5874 6.38123 25.7383 6.83393 25.7383V24.9687ZM6.05456 24.7019L5.50253 24.1657L5.44798 24.2218L6 24.7581L6.55202 25.2943L6.60658 25.2382L6.05456 24.7019ZM6 24.7581L5.44798 25.2943L5.50253 25.3505L6.05456 24.8142L6.60658 24.278L6.55202 24.2218L6 24.7581ZM6.05456 24.8142L5.58239 25.422C5.94035 25.7001 6.37968 25.8526 6.83393 25.8526V25.083V24.3134C6.72565 24.3134 6.61777 24.2772 6.52672 24.2065L6.05456 24.8142ZM6.83393 25.083V25.8526C7.28819 25.8526 7.72752 25.7001 8.08548 25.422L7.61331 24.8142L7.14114 24.2065C7.0501 24.2772 6.94221 24.3134 6.83393 24.3134V25.083ZM7.61331 24.8142L8.00182 25.4786L19.3885 18.8196L19 18.1552L18.6115 17.4909L7.22479 24.1499L7.61331 24.8142ZM19 18.1552L19.4703 17.546L19.3768 17.4738L18.9065 18.083L18.4362 18.6922L18.5297 18.7644L19 18.1552Z" fill="#19191A" mask="url(#path-5-inside-1_4176_231)"/>
</g>
<g opacity="0.12">
<mask id="path-7-inside-2_4176_231" fill="white">
<path d="M6.36243 24.9627C6.10761 24.6491 5.979 24.2476 6.0028 23.84V23.9603C5.979 24.3679 6.10761 24.7694 6.36243 25.083L6.41716 25.0269L6.36243 24.9627ZM23.2182 16.1255L19.3092 18.395L19.3795 18.4671L23.2182 16.2378C23.436 16.1328 23.623 15.9708 23.7602 15.7681C23.8975 15.5653 23.9802 15.329 24 15.083C23.956 15.3065 23.8627 15.5167 23.7272 15.6974C23.5916 15.8781 23.4175 16.0246 23.2182 16.1255Z"/>
</mask>
<path d="M6.36243 24.9627C6.10761 24.6491 5.979 24.2476 6.0028 23.84V23.9603C5.979 24.3679 6.10761 24.7694 6.36243 25.083L6.41716 25.0269L6.36243 24.9627ZM23.2182 16.1255L19.3092 18.395L19.3795 18.4671L23.2182 16.2378C23.436 16.1328 23.623 15.9708 23.7602 15.7681C23.8975 15.5653 23.9802 15.329 24 15.083C23.956 15.3065 23.8627 15.5167 23.7272 15.6974C23.5916 15.8781 23.4175 16.0246 23.2182 16.1255Z" fill="black"/>
<path d="M6.36243 24.9627L5.76511 25.448L5.77093 25.4552L5.77691 25.4622L6.36243 24.9627ZM6.0028 23.84H6.77241L5.2345 23.7951L6.0028 23.84ZM6.0028 23.9603L6.7711 24.0052L6.77241 23.9828V23.9603H6.0028ZM6.36243 25.083L5.76511 25.5683L6.31014 26.2391L6.9135 25.6202L6.36243 25.083ZM6.41716 25.0269L6.96823 25.5641L7.45826 25.0615L7.00268 24.5274L6.41716 25.0269ZM23.2182 16.1255L22.8706 15.4389L22.8509 15.4489L22.8318 15.4599L23.2182 16.1255ZM19.3092 18.395L18.9227 17.7294L18.0688 18.2252L18.7581 18.9322L19.3092 18.395ZM19.3795 18.4671L18.8285 19.0044L19.2472 19.4339L19.766 19.1326L19.3795 18.4671ZM23.2182 16.2378L22.8841 15.5445L22.8574 15.5573L22.8317 15.5723L23.2182 16.2378ZM24 15.083L24.7671 15.1447L23.2449 14.9345L24 15.083ZM6.36243 24.9627L6.95975 24.4774C6.8275 24.3146 6.75838 24.1027 6.7711 23.8849L6.0028 23.84L5.2345 23.7951C5.19961 24.3924 5.38773 24.9835 5.76511 25.448L6.36243 24.9627ZM6.0028 23.84H5.23319V23.9603H6.0028H6.77241V23.84H6.0028ZM6.0028 23.9603L5.2345 23.9154C5.19961 24.5127 5.38773 25.1038 5.76511 25.5683L6.36243 25.083L6.95975 24.5977C6.8275 24.4349 6.75838 24.223 6.7711 24.0052L6.0028 23.9603ZM6.36243 25.083L6.9135 25.6202L6.96823 25.5641L6.41716 25.0269L5.86609 24.4896L5.81137 24.5458L6.36243 25.083ZM6.41716 25.0269L7.00268 24.5274L6.94796 24.4633L6.36243 24.9627L5.77691 25.4622L5.83164 25.5263L6.41716 25.0269ZM23.2182 16.1255L22.8318 15.4599L18.9227 17.7294L19.3092 18.395L19.6956 19.0605L23.6046 16.7911L23.2182 16.1255ZM19.3092 18.395L18.7581 18.9322L18.8285 19.0044L19.3795 18.4671L19.9306 17.9299L19.8602 17.8577L19.3092 18.395ZM19.3795 18.4671L19.766 19.1326L23.6047 16.9033L23.2182 16.2378L22.8317 15.5723L18.993 17.8016L19.3795 18.4671ZM23.2182 16.2378L23.5523 16.9311C23.8941 16.7664 24.1851 16.5133 24.3975 16.1995L23.7602 15.7681L23.1229 15.3366C23.0608 15.4283 22.9779 15.4993 22.8841 15.5445L23.2182 16.2378ZM23.7602 15.7681L24.3975 16.1995C24.6099 15.8859 24.7368 15.522 24.7671 15.1447L24 15.083L23.2329 15.0213C23.2236 15.136 23.1851 15.2447 23.1229 15.3366L23.7602 15.7681ZM24 15.083L23.2449 14.9345C23.223 15.0454 23.177 15.1483 23.1115 15.2357L23.7272 15.6974L24.3429 16.1592C24.5484 15.8851 24.689 15.5676 24.7551 15.2316L24 15.083ZM23.7272 15.6974L23.1115 15.2357C23.046 15.3229 22.9632 15.392 22.8706 15.4389L23.2182 16.1255L23.5658 16.8121C23.8718 16.6572 24.1373 16.4334 24.3429 16.1592L23.7272 15.6974Z" fill="#19191A" mask="url(#path-7-inside-2_4176_231)"/>
</g>
<path opacity="0.25" d="M7.98524 5.45172L23.2184 14.0716C23.4177 14.1695 23.5918 14.3116 23.7272 14.4869C23.8627 14.6623 23.956 14.8662 24 15.083C23.9802 14.8444 23.8975 14.6151 23.7603 14.4184C23.6231 14.2217 23.4362 14.0645 23.2184 13.9627L7.98524 5.3428C6.89101 4.72821 6 5.24167 6 6.48642V6.60312C6.02345 5.35058 6.89883 4.83712 7.98524 5.45172Z" fill="white"/>
<g opacity="0.1">
<rect x="1.15686" y="1.23986" width="27.6863" height="27.6863" rx="6.11743" fill="white"/>
<rect x="1.15686" y="1.23986" width="27.6863" height="27.6863" rx="6.11743" stroke="#19191A" stroke-width="0.313714"/>
</g>
<mask id="path-11-outside-3_4176_231" maskUnits="userSpaceOnUse" x="36.9141" y="-0.916992" width="60" height="9" fill="black">
<rect fill="white" x="36.9141" y="-0.916992" width="60" height="9"/>
<path d="M39.5902 1.89946C40.1366 1.89946 40.6141 2.0053 41.0227 2.21697C41.4361 2.42373 41.7537 2.72401 41.9752 3.11782C42.2016 3.50671 42.3148 3.96205 42.3148 4.48385C42.3148 5.00565 42.2016 5.45854 41.9752 5.8425C41.7537 6.22647 41.4361 6.52183 41.0227 6.72858C40.6141 6.93041 40.1366 7.03132 39.5902 7.03132H37.9141V1.89946H39.5902ZM39.5902 6.34461C40.1907 6.34461 40.651 6.18216 40.971 5.85727C41.2909 5.53237 41.4509 5.07457 41.4509 4.48385C41.4509 3.88821 41.2909 3.42302 40.971 3.08828C40.651 2.75354 40.1907 2.58617 39.5902 2.58617H38.7558V6.34461H39.5902Z"/>
<path d="M44.36 1.89946V7.03132H43.5183V1.89946H44.36Z"/>
<path d="M47.5253 7.08301C47.1807 7.08301 46.8706 7.02394 46.5949 6.90579C46.3192 6.78273 46.1026 6.61043 45.9451 6.38891C45.7876 6.1674 45.7088 5.90896 45.7088 5.6136H46.6097C46.6294 5.83512 46.7155 6.01726 46.8681 6.16001C47.0256 6.30277 47.2447 6.37415 47.5253 6.37415C47.8157 6.37415 48.0421 6.30523 48.2046 6.1674C48.367 6.02464 48.4482 5.8425 48.4482 5.62098C48.4482 5.44869 48.3966 5.30839 48.2932 5.2001C48.1947 5.0918 48.0692 5.00811 47.9166 4.94904C47.7689 4.88997 47.5622 4.82598 47.2964 4.75706C46.9616 4.66845 46.6884 4.57984 46.4768 4.49124C46.27 4.39771 46.0928 4.25495 45.9451 4.06297C45.7974 3.87098 45.7236 3.615 45.7236 3.29503C45.7236 2.99967 45.7974 2.74124 45.9451 2.51972C46.0928 2.2982 46.2995 2.12837 46.5654 2.01022C46.8312 1.89208 47.1388 1.83301 47.4883 1.83301C47.9855 1.83301 48.3916 1.95853 48.7067 2.20959C49.0266 2.45572 49.2039 2.79538 49.2383 3.22858H48.3079C48.2932 3.04152 48.2046 2.88153 48.0421 2.74862C47.8797 2.61571 47.6656 2.54925 47.3997 2.54925C47.1585 2.54925 46.9616 2.61079 46.809 2.73385C46.6564 2.85692 46.5801 3.03413 46.5801 3.2655C46.5801 3.42302 46.6269 3.55347 46.7204 3.65685C46.8189 3.7553 46.9419 3.83406 47.0896 3.89313C47.2373 3.95221 47.4391 4.0162 47.6951 4.08512C48.0347 4.17865 48.3104 4.27218 48.5221 4.36571C48.7387 4.45924 48.9208 4.60446 49.0685 4.80136C49.2211 4.99335 49.2974 5.25178 49.2974 5.57668C49.2974 5.83758 49.226 6.08371 49.0833 6.31508C48.9454 6.54644 48.7411 6.7335 48.4704 6.87626C48.2046 7.01409 47.8895 7.08301 47.5253 7.08301Z"/>
<path d="M54.2484 3.42794C54.2484 3.68884 54.1868 3.93498 54.0638 4.16634C53.9407 4.39771 53.7438 4.58723 53.473 4.73491C53.2023 4.87766 52.8553 4.94904 52.4319 4.94904H51.5016V7.03132H50.6598V1.89946H52.4319C52.8257 1.89946 53.158 1.96838 53.4287 2.10621C53.7044 2.23913 53.9087 2.42126 54.0416 2.65263C54.1794 2.88399 54.2484 3.14243 54.2484 3.42794ZM52.4319 4.26233C52.7519 4.26233 52.9906 4.19095 53.1482 4.0482C53.3057 3.90052 53.3844 3.69377 53.3844 3.42794C53.3844 2.86676 53.0669 2.58617 52.4319 2.58617H51.5016V4.26233H52.4319Z"/>
<path d="M57.761 7.08301C57.2835 7.08301 56.843 6.97225 56.4393 6.75073C56.0406 6.52429 55.7231 6.2117 55.4868 5.81297C55.2555 5.40931 55.1398 4.95643 55.1398 4.45432C55.1398 3.95221 55.2555 3.50178 55.4868 3.10305C55.7231 2.70432 56.0406 2.39419 56.4393 2.17267C56.843 1.94623 57.2835 1.83301 57.761 1.83301C58.2434 1.83301 58.684 1.94623 59.0827 2.17267C59.4864 2.39419 59.8039 2.70432 60.0353 3.10305C60.2666 3.50178 60.3823 3.95221 60.3823 4.45432C60.3823 4.95643 60.2666 5.40931 60.0353 5.81297C59.8039 6.2117 59.4864 6.52429 59.0827 6.75073C58.684 6.97225 58.2434 7.08301 57.761 7.08301ZM57.761 6.352C58.1007 6.352 58.4034 6.27569 58.6692 6.12309C58.9351 5.96557 59.1418 5.74405 59.2895 5.45854C59.4421 5.1681 59.5184 4.83336 59.5184 4.45432C59.5184 4.07527 59.4421 3.74299 59.2895 3.45748C59.1418 3.17197 58.9351 2.95291 58.6692 2.80031C58.4034 2.64771 58.1007 2.5714 57.761 2.5714C57.4214 2.5714 57.1186 2.64771 56.8528 2.80031C56.587 2.95291 56.3778 3.17197 56.2252 3.45748C56.0775 3.74299 56.0037 4.07527 56.0037 4.45432C56.0037 4.83336 56.0775 5.1681 56.2252 5.45854C56.3778 5.74405 56.587 5.96557 56.8528 6.12309C57.1186 6.27569 57.4214 6.352 57.761 6.352Z"/>
<path d="M65.796 7.03132H64.9542L62.4216 3.19904V7.03132H61.5798V1.89208H62.4216L64.9542 5.71697V1.89208H65.796V7.03132Z"/>
<path d="M68.1123 1.89946V7.03132H67.2705V1.89946H68.1123ZM68.4519 0.799253L66.8201 1.60411V0.983851L68.4519 0.0830078V0.799253Z"/>
<path d="M74.0095 1.89946L72.0824 7.03132H71.1077L69.1731 1.89946H70.074L71.595 6.1674L73.1235 1.89946H74.0095Z"/>
<path d="M75.9244 2.57879V4.08512H77.6966V4.77183H75.9244V6.34461H77.9181V7.03132H75.0827V1.89208H77.9181V2.57879H75.9244Z"/>
<path d="M80.1658 6.352H81.901V7.03132H79.3241V1.89946H80.1658V6.352Z"/>
<path d="M89.4776 7.03132H88.6358L86.1032 3.19904V7.03132H85.2614V1.89208H86.1032L88.6358 5.71697V1.89208H89.4776V7.03132Z"/>
<path d="M93.2928 7.08301C92.8153 7.08301 92.3748 6.97225 91.9711 6.75073C91.5724 6.52429 91.2549 6.2117 91.0186 5.81297C90.7872 5.40931 90.6715 4.95643 90.6715 4.45432C90.6715 3.95221 90.7872 3.50178 91.0186 3.10305C91.2549 2.70432 91.5724 2.39419 91.9711 2.17267C92.3748 1.94623 92.8153 1.83301 93.2928 1.83301C93.7752 1.83301 94.2158 1.94623 94.6145 2.17267C95.0182 2.39419 95.3357 2.70432 95.567 3.10305C95.7984 3.50178 95.9141 3.95221 95.9141 4.45432C95.9141 4.95643 95.7984 5.40931 95.567 5.81297C95.3357 6.2117 95.0182 6.52429 94.6145 6.75073C94.2158 6.97225 93.7752 7.08301 93.2928 7.08301ZM93.2928 6.352C93.6325 6.352 93.9352 6.27569 94.201 6.12309C94.4668 5.96557 94.6736 5.74405 94.8213 5.45854C94.9739 5.1681 95.0502 4.83336 95.0502 4.45432C95.0502 4.07527 94.9739 3.74299 94.8213 3.45748C94.6736 3.17197 94.4668 2.95291 94.201 2.80031C93.9352 2.64771 93.6325 2.5714 93.2928 2.5714C92.9531 2.5714 92.6504 2.64771 92.3846 2.80031C92.1188 2.95291 91.9096 3.17197 91.757 3.45748C91.6093 3.74299 91.5355 4.07527 91.5355 4.45432C91.5355 4.83336 91.6093 5.1681 91.757 5.45854C91.9096 5.74405 92.1188 5.96557 92.3846 6.12309C92.6504 6.27569 92.9531 6.352 93.2928 6.352Z"/>
</mask>
<path d="M39.5902 1.89946C40.1366 1.89946 40.6141 2.0053 41.0227 2.21697C41.4361 2.42373 41.7537 2.72401 41.9752 3.11782C42.2016 3.50671 42.3148 3.96205 42.3148 4.48385C42.3148 5.00565 42.2016 5.45854 41.9752 5.8425C41.7537 6.22647 41.4361 6.52183 41.0227 6.72858C40.6141 6.93041 40.1366 7.03132 39.5902 7.03132H37.9141V1.89946H39.5902ZM39.5902 6.34461C40.1907 6.34461 40.651 6.18216 40.971 5.85727C41.2909 5.53237 41.4509 5.07457 41.4509 4.48385C41.4509 3.88821 41.2909 3.42302 40.971 3.08828C40.651 2.75354 40.1907 2.58617 39.5902 2.58617H38.7558V6.34461H39.5902Z" fill="black"/>
<path d="M44.36 1.89946V7.03132H43.5183V1.89946H44.36Z" fill="black"/>
<path d="M47.5253 7.08301C47.1807 7.08301 46.8706 7.02394 46.5949 6.90579C46.3192 6.78273 46.1026 6.61043 45.9451 6.38891C45.7876 6.1674 45.7088 5.90896 45.7088 5.6136H46.6097C46.6294 5.83512 46.7155 6.01726 46.8681 6.16001C47.0256 6.30277 47.2447 6.37415 47.5253 6.37415C47.8157 6.37415 48.0421 6.30523 48.2046 6.1674C48.367 6.02464 48.4482 5.8425 48.4482 5.62098C48.4482 5.44869 48.3966 5.30839 48.2932 5.2001C48.1947 5.0918 48.0692 5.00811 47.9166 4.94904C47.7689 4.88997 47.5622 4.82598 47.2964 4.75706C46.9616 4.66845 46.6884 4.57984 46.4768 4.49124C46.27 4.39771 46.0928 4.25495 45.9451 4.06297C45.7974 3.87098 45.7236 3.615 45.7236 3.29503C45.7236 2.99967 45.7974 2.74124 45.9451 2.51972C46.0928 2.2982 46.2995 2.12837 46.5654 2.01022C46.8312 1.89208 47.1388 1.83301 47.4883 1.83301C47.9855 1.83301 48.3916 1.95853 48.7067 2.20959C49.0266 2.45572 49.2039 2.79538 49.2383 3.22858H48.3079C48.2932 3.04152 48.2046 2.88153 48.0421 2.74862C47.8797 2.61571 47.6656 2.54925 47.3997 2.54925C47.1585 2.54925 46.9616 2.61079 46.809 2.73385C46.6564 2.85692 46.5801 3.03413 46.5801 3.2655C46.5801 3.42302 46.6269 3.55347 46.7204 3.65685C46.8189 3.7553 46.9419 3.83406 47.0896 3.89313C47.2373 3.95221 47.4391 4.0162 47.6951 4.08512C48.0347 4.17865 48.3104 4.27218 48.5221 4.36571C48.7387 4.45924 48.9208 4.60446 49.0685 4.80136C49.2211 4.99335 49.2974 5.25178 49.2974 5.57668C49.2974 5.83758 49.226 6.08371 49.0833 6.31508C48.9454 6.54644 48.7411 6.7335 48.4704 6.87626C48.2046 7.01409 47.8895 7.08301 47.5253 7.08301Z" fill="black"/>
<path d="M54.2484 3.42794C54.2484 3.68884 54.1868 3.93498 54.0638 4.16634C53.9407 4.39771 53.7438 4.58723 53.473 4.73491C53.2023 4.87766 52.8553 4.94904 52.4319 4.94904H51.5016V7.03132H50.6598V1.89946H52.4319C52.8257 1.89946 53.158 1.96838 53.4287 2.10621C53.7044 2.23913 53.9087 2.42126 54.0416 2.65263C54.1794 2.88399 54.2484 3.14243 54.2484 3.42794ZM52.4319 4.26233C52.7519 4.26233 52.9906 4.19095 53.1482 4.0482C53.3057 3.90052 53.3844 3.69377 53.3844 3.42794C53.3844 2.86676 53.0669 2.58617 52.4319 2.58617H51.5016V4.26233H52.4319Z" fill="black"/>
<path d="M57.761 7.08301C57.2835 7.08301 56.843 6.97225 56.4393 6.75073C56.0406 6.52429 55.7231 6.2117 55.4868 5.81297C55.2555 5.40931 55.1398 4.95643 55.1398 4.45432C55.1398 3.95221 55.2555 3.50178 55.4868 3.10305C55.7231 2.70432 56.0406 2.39419 56.4393 2.17267C56.843 1.94623 57.2835 1.83301 57.761 1.83301C58.2434 1.83301 58.684 1.94623 59.0827 2.17267C59.4864 2.39419 59.8039 2.70432 60.0353 3.10305C60.2666 3.50178 60.3823 3.95221 60.3823 4.45432C60.3823 4.95643 60.2666 5.40931 60.0353 5.81297C59.8039 6.2117 59.4864 6.52429 59.0827 6.75073C58.684 6.97225 58.2434 7.08301 57.761 7.08301ZM57.761 6.352C58.1007 6.352 58.4034 6.27569 58.6692 6.12309C58.9351 5.96557 59.1418 5.74405 59.2895 5.45854C59.4421 5.1681 59.5184 4.83336 59.5184 4.45432C59.5184 4.07527 59.4421 3.74299 59.2895 3.45748C59.1418 3.17197 58.9351 2.95291 58.6692 2.80031C58.4034 2.64771 58.1007 2.5714 57.761 2.5714C57.4214 2.5714 57.1186 2.64771 56.8528 2.80031C56.587 2.95291 56.3778 3.17197 56.2252 3.45748C56.0775 3.74299 56.0037 4.07527 56.0037 4.45432C56.0037 4.83336 56.0775 5.1681 56.2252 5.45854C56.3778 5.74405 56.587 5.96557 56.8528 6.12309C57.1186 6.27569 57.4214 6.352 57.761 6.352Z" fill="black"/>
<path d="M65.796 7.03132H64.9542L62.4216 3.19904V7.03132H61.5798V1.89208H62.4216L64.9542 5.71697V1.89208H65.796V7.03132Z" fill="black"/>
<path d="M68.1123 1.89946V7.03132H67.2705V1.89946H68.1123ZM68.4519 0.799253L66.8201 1.60411V0.983851L68.4519 0.0830078V0.799253Z" fill="black"/>
<path d="M74.0095 1.89946L72.0824 7.03132H71.1077L69.1731 1.89946H70.074L71.595 6.1674L73.1235 1.89946H74.0095Z" fill="black"/>
<path d="M75.9244 2.57879V4.08512H77.6966V4.77183H75.9244V6.34461H77.9181V7.03132H75.0827V1.89208H77.9181V2.57879H75.9244Z" fill="black"/>
<path d="M80.1658 6.352H81.901V7.03132H79.3241V1.89946H80.1658V6.352Z" fill="black"/>
<path d="M89.4776 7.03132H88.6358L86.1032 3.19904V7.03132H85.2614V1.89208H86.1032L88.6358 5.71697V1.89208H89.4776V7.03132Z" fill="black"/>
<path d="M93.2928 7.08301C92.8153 7.08301 92.3748 6.97225 91.9711 6.75073C91.5724 6.52429 91.2549 6.2117 91.0186 5.81297C90.7872 5.40931 90.6715 4.95643 90.6715 4.45432C90.6715 3.95221 90.7872 3.50178 91.0186 3.10305C91.2549 2.70432 91.5724 2.39419 91.9711 2.17267C92.3748 1.94623 92.8153 1.83301 93.2928 1.83301C93.7752 1.83301 94.2158 1.94623 94.6145 2.17267C95.0182 2.39419 95.3357 2.70432 95.567 3.10305C95.7984 3.50178 95.9141 3.95221 95.9141 4.45432C95.9141 4.95643 95.7984 5.40931 95.567 5.81297C95.3357 6.2117 95.0182 6.52429 94.6145 6.75073C94.2158 6.97225 93.7752 7.08301 93.2928 7.08301ZM93.2928 6.352C93.6325 6.352 93.9352 6.27569 94.201 6.12309C94.4668 5.96557 94.6736 5.74405 94.8213 5.45854C94.9739 5.1681 95.0502 4.83336 95.0502 4.45432C95.0502 4.07527 94.9739 3.74299 94.8213 3.45748C94.6736 3.17197 94.4668 2.95291 94.201 2.80031C93.9352 2.64771 93.6325 2.5714 93.2928 2.5714C92.9531 2.5714 92.6504 2.64771 92.3846 2.80031C92.1188 2.95291 91.9096 3.17197 91.757 3.45748C91.6093 3.74299 91.5355 4.07527 91.5355 4.45432C91.5355 4.83336 91.6093 5.1681 91.757 5.45854C91.9096 5.74405 92.1188 5.96557 92.3846 6.12309C92.6504 6.27569 92.9531 6.352 93.2928 6.352Z" fill="black"/>
<path d="M39.5902 1.89946C40.1366 1.89946 40.6141 2.0053 41.0227 2.21697C41.4361 2.42373 41.7537 2.72401 41.9752 3.11782C42.2016 3.50671 42.3148 3.96205 42.3148 4.48385C42.3148 5.00565 42.2016 5.45854 41.9752 5.8425C41.7537 6.22647 41.4361 6.52183 41.0227 6.72858C40.6141 6.93041 40.1366 7.03132 39.5902 7.03132H37.9141V1.89946H39.5902ZM39.5902 6.34461C40.1907 6.34461 40.651 6.18216 40.971 5.85727C41.2909 5.53237 41.4509 5.07457 41.4509 4.48385C41.4509 3.88821 41.2909 3.42302 40.971 3.08828C40.651 2.75354 40.1907 2.58617 39.5902 2.58617H38.7558V6.34461H39.5902Z" stroke="#19191A" stroke-width="0.0979686" mask="url(#path-11-outside-3_4176_231)"/>
<path d="M44.36 1.89946V7.03132H43.5183V1.89946H44.36Z" stroke="#19191A" stroke-width="0.0979686" mask="url(#path-11-outside-3_4176_231)"/>
<path d="M47.5253 7.08301C47.1807 7.08301 46.8706 7.02394 46.5949 6.90579C46.3192 6.78273 46.1026 6.61043 45.9451 6.38891C45.7876 6.1674 45.7088 5.90896 45.7088 5.6136H46.6097C46.6294 5.83512 46.7155 6.01726 46.8681 6.16001C47.0256 6.30277 47.2447 6.37415 47.5253 6.37415C47.8157 6.37415 48.0421 6.30523 48.2046 6.1674C48.367 6.02464 48.4482 5.8425 48.4482 5.62098C48.4482 5.44869 48.3966 5.30839 48.2932 5.2001C48.1947 5.0918 48.0692 5.00811 47.9166 4.94904C47.7689 4.88997 47.5622 4.82598 47.2964 4.75706C46.9616 4.66845 46.6884 4.57984 46.4768 4.49124C46.27 4.39771 46.0928 4.25495 45.9451 4.06297C45.7974 3.87098 45.7236 3.615 45.7236 3.29503C45.7236 2.99967 45.7974 2.74124 45.9451 2.51972C46.0928 2.2982 46.2995 2.12837 46.5654 2.01022C46.8312 1.89208 47.1388 1.83301 47.4883 1.83301C47.9855 1.83301 48.3916 1.95853 48.7067 2.20959C49.0266 2.45572 49.2039 2.79538 49.2383 3.22858H48.3079C48.2932 3.04152 48.2046 2.88153 48.0421 2.74862C47.8797 2.61571 47.6656 2.54925 47.3997 2.54925C47.1585 2.54925 46.9616 2.61079 46.809 2.73385C46.6564 2.85692 46.5801 3.03413 46.5801 3.2655C46.5801 3.42302 46.6269 3.55347 46.7204 3.65685C46.8189 3.7553 46.9419 3.83406 47.0896 3.89313C47.2373 3.95221 47.4391 4.0162 47.6951 4.08512C48.0347 4.17865 48.3104 4.27218 48.5221 4.36571C48.7387 4.45924 48.9208 4.60446 49.0685 4.80136C49.2211 4.99335 49.2974 5.25178 49.2974 5.57668C49.2974 5.83758 49.226 6.08371 49.0833 6.31508C48.9454 6.54644 48.7411 6.7335 48.4704 6.87626C48.2046 7.01409 47.8895 7.08301 47.5253 7.08301Z" stroke="#19191A" stroke-width="0.0979686" mask="url(#path-11-outside-3_4176_231)"/>
<path d="M54.2484 3.42794C54.2484 3.68884 54.1868 3.93498 54.0638 4.16634C53.9407 4.39771 53.7438 4.58723 53.473 4.73491C53.2023 4.87766 52.8553 4.94904 52.4319 4.94904H51.5016V7.03132H50.6598V1.89946H52.4319C52.8257 1.89946 53.158 1.96838 53.4287 2.10621C53.7044 2.23913 53.9087 2.42126 54.0416 2.65263C54.1794 2.88399 54.2484 3.14243 54.2484 3.42794ZM52.4319 4.26233C52.7519 4.26233 52.9906 4.19095 53.1482 4.0482C53.3057 3.90052 53.3844 3.69377 53.3844 3.42794C53.3844 2.86676 53.0669 2.58617 52.4319 2.58617H51.5016V4.26233H52.4319Z" stroke="#19191A" stroke-width="0.0979686" mask="url(#path-11-outside-3_4176_231)"/>
<path d="M57.761 7.08301C57.2835 7.08301 56.843 6.97225 56.4393 6.75073C56.0406 6.52429 55.7231 6.2117 55.4868 5.81297C55.2555 5.40931 55.1398 4.95643 55.1398 4.45432C55.1398 3.95221 55.2555 3.50178 55.4868 3.10305C55.7231 2.70432 56.0406 2.39419 56.4393 2.17267C56.843 1.94623 57.2835 1.83301 57.761 1.83301C58.2434 1.83301 58.684 1.94623 59.0827 2.17267C59.4864 2.39419 59.8039 2.70432 60.0353 3.10305C60.2666 3.50178 60.3823 3.95221 60.3823 4.45432C60.3823 4.95643 60.2666 5.40931 60.0353 5.81297C59.8039 6.2117 59.4864 6.52429 59.0827 6.75073C58.684 6.97225 58.2434 7.08301 57.761 7.08301ZM57.761 6.352C58.1007 6.352 58.4034 6.27569 58.6692 6.12309C58.9351 5.96557 59.1418 5.74405 59.2895 5.45854C59.4421 5.1681 59.5184 4.83336 59.5184 4.45432C59.5184 4.07527 59.4421 3.74299 59.2895 3.45748C59.1418 3.17197 58.9351 2.95291 58.6692 2.80031C58.4034 2.64771 58.1007 2.5714 57.761 2.5714C57.4214 2.5714 57.1186 2.64771 56.8528 2.80031C56.587 2.95291 56.3778 3.17197 56.2252 3.45748C56.0775 3.74299 56.0037 4.07527 56.0037 4.45432C56.0037 4.83336 56.0775 5.1681 56.2252 5.45854C56.3778 5.74405 56.587 5.96557 56.8528 6.12309C57.1186 6.27569 57.4214 6.352 57.761 6.352Z" stroke="#19191A" stroke-width="0.0979686" mask="url(#path-11-outside-3_4176_231)"/>
<path d="M65.796 7.03132H64.9542L62.4216 3.19904V7.03132H61.5798V1.89208H62.4216L64.9542 5.71697V1.89208H65.796V7.03132Z" stroke="#19191A" stroke-width="0.0979686" mask="url(#path-11-outside-3_4176_231)"/>
<path d="M68.1123 1.89946V7.03132H67.2705V1.89946H68.1123ZM68.4519 0.799253L66.8201 1.60411V0.983851L68.4519 0.0830078V0.799253Z" stroke="#19191A" stroke-width="0.0979686" mask="url(#path-11-outside-3_4176_231)"/>
<path d="M74.0095 1.89946L72.0824 7.03132H71.1077L69.1731 1.89946H70.074L71.595 6.1674L73.1235 1.89946H74.0095Z" stroke="#19191A" stroke-width="0.0979686" mask="url(#path-11-outside-3_4176_231)"/>
<path d="M75.9244 2.57879V4.08512H77.6966V4.77183H75.9244V6.34461H77.9181V7.03132H75.0827V1.89208H77.9181V2.57879H75.9244Z" stroke="#19191A" stroke-width="0.0979686" mask="url(#path-11-outside-3_4176_231)"/>
<path d="M80.1658 6.352H81.901V7.03132H79.3241V1.89946H80.1658V6.352Z" stroke="#19191A" stroke-width="0.0979686" mask="url(#path-11-outside-3_4176_231)"/>
<path d="M89.4776 7.03132H88.6358L86.1032 3.19904V7.03132H85.2614V1.89208H86.1032L88.6358 5.71697V1.89208H89.4776V7.03132Z" stroke="#19191A" stroke-width="0.0979686" mask="url(#path-11-outside-3_4176_231)"/>
<path d="M93.2928 7.08301C92.8153 7.08301 92.3748 6.97225 91.9711 6.75073C91.5724 6.52429 91.2549 6.2117 91.0186 5.81297C90.7872 5.40931 90.6715 4.95643 90.6715 4.45432C90.6715 3.95221 90.7872 3.50178 91.0186 3.10305C91.2549 2.70432 91.5724 2.39419 91.9711 2.17267C92.3748 1.94623 92.8153 1.83301 93.2928 1.83301C93.7752 1.83301 94.2158 1.94623 94.6145 2.17267C95.0182 2.39419 95.3357 2.70432 95.567 3.10305C95.7984 3.50178 95.9141 3.95221 95.9141 4.45432C95.9141 4.95643 95.7984 5.40931 95.567 5.81297C95.3357 6.2117 95.0182 6.52429 94.6145 6.75073C94.2158 6.97225 93.7752 7.08301 93.2928 7.08301ZM93.2928 6.352C93.6325 6.352 93.9352 6.27569 94.201 6.12309C94.4668 5.96557 94.6736 5.74405 94.8213 5.45854C94.9739 5.1681 95.0502 4.83336 95.0502 4.45432C95.0502 4.07527 94.9739 3.74299 94.8213 3.45748C94.6736 3.17197 94.4668 2.95291 94.201 2.80031C93.9352 2.64771 93.6325 2.5714 93.2928 2.5714C92.9531 2.5714 92.6504 2.64771 92.3846 2.80031C92.1188 2.95291 91.9096 3.17197 91.757 3.45748C91.6093 3.74299 91.5355 4.07527 91.5355 4.45432C91.5355 4.83336 91.6093 5.1681 91.757 5.45854C91.9096 5.74405 92.1188 5.96557 92.3846 6.12309C92.6504 6.27569 92.9531 6.352 93.2928 6.352Z" stroke="#19191A" stroke-width="0.0979686" mask="url(#path-11-outside-3_4176_231)"/>
<mask id="path-12-inside-4_4176_231" fill="white">
<path d="M51.2271 17.0103H48.2278C47.2263 17.0103 46.2275 17.013 45.2021 17.0209C45.0431 17.0209 44.9902 17.0525 44.9902 17.2237C45.0035 17.7058 45.0061 18.1904 44.9902 18.6725C44.9849 18.8621 45.0379 18.9095 45.2286 18.9095H49.3512C49.4678 18.9095 49.526 18.9096 49.5075 19.0623C49.4889 19.2151 49.4572 19.3652 49.4254 19.5128C49.3241 20.0045 49.1219 20.4702 48.8315 20.8808C48.5412 21.2914 48.1688 21.6381 47.7377 21.8993C46.6839 22.578 45.4084 22.8289 44.1742 22.6C43.3975 22.4876 42.6605 22.187 42.0281 21.7249C41.3956 21.2628 40.887 20.6534 40.547 19.9501C39.9387 18.7556 39.8302 17.3704 40.2451 16.0967C40.6601 14.8231 41.5648 13.7643 42.762 13.1513C43.6916 12.6751 44.7529 12.5159 45.7824 12.6982C46.7113 12.8367 47.5765 13.2508 48.2649 13.8863C48.355 13.96 48.408 13.9943 48.5139 13.8863C48.8875 13.499 49.2717 13.125 49.6585 12.7509C49.7433 12.6719 49.7407 12.627 49.6585 12.5507C49.3729 12.2839 49.0644 12.0424 48.7365 11.829C47.8913 11.273 46.9267 10.922 45.9202 10.8042C45.2247 10.7133 44.5195 10.724 43.8271 10.8359C42.965 10.9747 42.136 11.2703 41.3816 11.7078C39.9317 12.541 38.8329 13.8663 38.287 15.4404C38.1117 15.9048 37.9986 16.3901 37.9506 16.8839C37.8843 17.5426 37.9084 18.2072 38.0221 18.8595C38.1189 19.3885 38.279 19.9041 38.499 20.3952C38.7576 20.9507 39.0822 21.4733 39.466 21.9519C39.8564 22.4334 40.311 22.8597 40.8173 23.219C41.4966 23.7135 42.2605 24.0812 43.072 24.3043C43.5277 24.4408 43.9982 24.5222 44.4735 24.5466C44.915 24.5718 45.3578 24.5647 45.7982 24.5255C46.2051 24.4832 46.6081 24.4102 47.0038 24.307C47.8946 24.0687 48.7203 23.6348 49.4201 23.0372C50.2638 22.3492 50.8833 21.428 51.2005 20.39C51.525 19.3692 51.6155 18.2891 51.4655 17.229C51.439 17.0657 51.3966 17.0103 51.2271 17.0103Z"/>
<path d="M83.6726 24.1606V17.8289C83.6709 15.7166 83.6744 13.6068 83.6834 11.4998C83.6834 11.3468 83.6539 11.2887 83.4798 11.2887H81.873C81.723 11.2861 81.6855 11.331 81.6855 11.4761V24.1974C81.6855 24.3531 81.7391 24.3794 81.881 24.3794C82.056 24.3794 82.2297 24.3777 82.4035 24.3759C82.7511 24.3724 83.0986 24.3689 83.4557 24.3794C83.6378 24.3821 83.6726 24.3268 83.6726 24.1606Z"/>
<path fill-rule="evenodd" clip-rule="evenodd" d="M72.8326 25.8015L72.8319 25.8017C72.6356 25.8857 72.4392 25.9696 72.2429 26.0546C72.2769 26.1214 72.3031 26.1774 72.3241 26.2362C72.6157 26.8724 73.0503 27.4298 73.5927 27.8629C74.1949 28.3497 74.924 28.646 75.6897 28.715C76.2428 28.7746 76.8019 28.7394 77.3436 28.6108C77.8981 28.4914 78.4183 28.2435 78.8637 27.8864C79.3092 27.5293 79.668 27.0725 79.9124 26.5514C80.2718 25.7459 80.4422 24.8661 80.4104 23.9818V16.0995C80.413 15.9553 80.3606 15.9259 80.2321 15.9259H79.0788C79.0304 15.9259 78.9788 15.9201 78.927 15.9143C78.7993 15.9 78.6707 15.8856 78.5887 15.9579C78.506 16.0307 78.5216 16.1708 78.5371 16.3092C78.5432 16.3638 78.5493 16.4182 78.5493 16.4681V16.4895C78.5467 16.5055 78.551 16.5229 78.5554 16.5404C78.5642 16.5757 78.573 16.6114 78.5258 16.6363C78.4725 16.6645 78.4445 16.6245 78.4182 16.5871C78.4096 16.5748 78.4011 16.5628 78.3921 16.5535C77.8875 16.0309 77.2122 15.7154 76.4944 15.6668C74.94 15.5466 73.7002 16.1769 72.7697 17.4163C72.1845 18.1986 71.8709 19.1571 71.8785 20.1408C71.8686 20.701 71.9647 21.2578 72.1616 21.7809C72.3627 22.3338 72.6691 22.8407 73.0632 23.2726C73.4572 23.7044 73.9312 24.0525 74.4577 24.297C75.1491 24.636 75.9255 24.7515 76.6831 24.6282C77.3395 24.5277 77.9454 24.2105 78.4078 23.7254C78.4163 23.7168 78.4234 23.7059 78.4305 23.695C78.4499 23.6653 78.4692 23.6357 78.5153 23.6533C78.5627 23.6714 78.5565 23.7138 78.5506 23.7542C78.5487 23.7674 78.5468 23.7803 78.5468 23.7922C78.5501 24.1608 78.5299 24.5293 78.4864 24.8953C78.3789 25.6565 78.067 26.2736 77.3855 26.6342C77.0176 26.8496 76.5992 26.9591 76.175 26.9512C75.7507 26.9432 75.3366 26.8179 74.9767 26.5888C74.5573 26.3238 74.2223 25.9407 74.0121 25.4857L74.0075 25.4761L74.0009 25.462C73.9671 25.3897 73.9361 25.3232 73.8156 25.3762C73.488 25.5214 73.1601 25.6615 72.8326 25.8015ZM78.4392 18.9068C78.5896 19.2534 78.674 19.626 78.6882 20.0047C78.683 20.9128 78.4917 21.5806 77.9989 22.1308C77.7758 22.3777 77.5035 22.5731 77.2003 22.7042C76.8972 22.8352 76.57 22.8988 76.2408 22.8907C75.9115 22.8826 75.5878 22.803 75.2912 22.6572C74.9945 22.5114 74.7318 22.3028 74.5206 22.0453C74.0734 21.4997 73.8355 20.8074 73.8509 20.0967C73.8663 19.386 74.1341 18.7052 74.6045 18.1803C74.8674 17.8857 75.1997 17.6645 75.5701 17.5376C75.9404 17.4106 76.3363 17.3822 76.7205 17.455C77.1046 17.5278 77.4641 17.6993 77.7649 17.9534C78.0657 18.2074 78.2978 18.5356 78.4392 18.9068Z"/>
<path fill-rule="evenodd" clip-rule="evenodd" d="M61.1613 20.1085C61.1515 20.9772 60.8872 21.8246 60.4004 22.5484C59.9135 23.2722 59.2248 23.8417 58.4174 24.188C57.61 24.5343 56.7183 24.6429 55.8498 24.5004C54.9813 24.3579 54.1731 23.9706 53.5227 23.3851C52.7482 22.696 52.2551 21.7519 52.1358 20.7297C52.0326 20.0891 52.0749 19.4338 52.2594 18.8112C52.4438 18.1886 52.766 17.6142 53.2026 17.1293C53.6368 16.6368 54.1791 16.2483 54.7882 15.9934C55.3972 15.7384 56.0572 15.6239 56.7178 15.6582C57.3074 15.6567 57.8914 15.7712 58.4356 15.9951C58.9797 16.2191 59.4731 16.548 59.8869 16.9624C60.3006 17.3768 60.6265 17.8685 60.8454 18.4087C61.0642 18.9489 61.1716 19.5268 61.1613 20.1085ZM58.1555 22.2535C57.7205 22.592 57.1833 22.7773 56.6293 22.7798C55.9999 22.769 55.3962 22.5312 54.932 22.1115C54.4677 21.6916 54.1751 21.1187 54.1095 20.5007C54.048 20.1265 54.0635 19.7441 54.1552 19.376C54.2468 19.0079 54.4127 18.6618 54.6429 18.3584C54.914 17.9818 55.2917 17.6927 55.7286 17.5269C56.1656 17.3612 56.6424 17.3263 57.0993 17.4267C57.5734 17.5062 58.0133 17.7219 58.3638 18.0467C58.7144 18.3716 58.9601 18.7912 59.0703 19.2531C59.2386 19.7862 59.2414 20.3569 59.0784 20.8916C58.9154 21.4263 58.5939 21.9006 58.1555 22.2535Z"/>
<path fill-rule="evenodd" clip-rule="evenodd" d="M70.9694 20.1835C70.9628 21.0627 70.7106 21.9215 70.2426 22.658C69.7746 23.3945 69.1105 23.9778 68.3292 24.3385C67.5478 24.6993 66.682 24.8225 65.8345 24.6934C64.9869 24.5642 64.1933 24.1883 63.5478 23.6101C63.1138 23.2331 62.7596 22.769 62.5071 22.2461C62.2546 21.7233 62.1091 21.1529 62.0797 20.5702C61.9096 17.5812 64.0293 15.6449 66.5284 15.653C67.1123 15.6422 67.6924 15.7518 68.2342 15.9753C68.7761 16.1988 69.2687 16.5317 69.6829 16.9542C70.097 17.3767 70.4243 17.8802 70.6453 18.4349C70.8663 18.9896 70.9765 19.5842 70.9694 20.1835ZM66.7431 22.9227C67.2163 22.889 67.6665 22.7008 68.0279 22.3856C68.9203 21.631 69.182 20.6399 68.9596 19.5147C68.8878 19.0396 68.6813 18.5968 68.3658 18.2415C68.0502 17.8861 67.6396 17.634 67.1853 17.5167C66.7541 17.3776 66.2927 17.3706 65.8576 17.4965C65.4225 17.6224 65.0327 17.8759 64.7359 18.2257C64.4486 18.5475 64.2376 18.9331 64.1196 19.3524C64.0016 19.7717 63.9796 20.2132 64.0555 20.6427C64.2097 21.9222 65.2803 22.9204 66.7431 22.9227Z"/>
<path fill-rule="evenodd" clip-rule="evenodd" d="M84.5972 20.1379C84.5682 19.4106 84.7207 18.6873 85.0411 18.0333C85.2195 17.6684 85.4487 17.3305 85.7216 17.0294C86.0086 16.7123 86.3424 16.4408 86.7115 16.2241C87.1693 15.9533 87.677 15.7771 88.2044 15.706C88.8754 15.5962 89.5633 15.6553 90.2057 15.8778C91.1722 16.2386 91.9718 16.9419 92.4518 17.8535C92.6342 18.1895 92.7916 18.5386 92.9225 18.8977C92.9682 19.0131 92.9521 19.0722 92.8364 19.1205L88.8634 20.7312L88.7857 20.7645C88.185 21.0218 87.5865 21.2782 86.9805 21.5123C86.8875 21.551 86.9012 21.5772 86.9358 21.6433L86.9402 21.6518C87.7041 23.1121 89.5036 23.241 90.6038 22.4276C90.8597 22.2321 91.0878 22.0028 91.2816 21.7458C91.341 21.6737 91.3706 21.693 91.4133 21.7207L91.4188 21.7243C91.5259 21.7957 91.6328 21.8672 91.7397 21.9386L91.7408 21.9393L91.7417 21.9399C92.096 22.1767 92.4498 22.4131 92.8068 22.6478C92.8767 22.6935 92.8875 22.7256 92.831 22.798C92.1862 23.6941 91.2434 24.3325 90.1707 24.5993C89.7845 24.7049 89.3847 24.7528 88.9844 24.7416C88.4101 24.7255 87.8434 24.6063 87.3113 24.3899C86.8809 24.1979 86.4791 23.9477 86.117 23.6463C85.6952 23.2893 85.3487 22.8523 85.0976 22.3605C84.73 21.6793 84.5569 20.9105 84.5972 20.1379ZM86.5689 19.7943C86.5689 20.0358 86.5689 20.0359 86.7841 19.9446C87.079 19.8233 87.3738 19.7018 87.6684 19.5803L87.6808 19.5752C88.6076 19.1932 89.5336 18.8115 90.4612 18.436C90.6307 18.3662 90.6334 18.2964 90.5446 18.1675C90.3966 17.9442 90.1974 17.7595 89.9635 17.6283C89.7296 17.4971 89.4678 17.4234 89.1997 17.4133C88.8687 17.3904 88.5366 17.4344 88.2231 17.5428C87.9097 17.6513 87.6214 17.8218 87.3757 18.0442C87.13 18.2666 86.9318 18.5363 86.7932 18.837C86.6546 19.1378 86.5783 19.4633 86.5689 19.7943Z"/>
<path fill-rule="evenodd" clip-rule="evenodd" d="M97.0599 11.2288H101.756C102.315 11.1886 102.876 11.2641 103.404 11.4505C103.932 11.6369 104.416 11.9303 104.826 12.3123C105.236 12.6943 105.563 13.1568 105.787 13.6709C106.011 14.185 106.126 14.7397 106.126 15.3004C106.126 15.8611 106.011 16.4158 105.787 16.9299C105.563 17.444 105.236 17.9064 104.826 18.2884C104.416 18.6704 103.932 18.9638 103.404 19.1502C102.876 19.3366 102.315 19.4121 101.756 19.3719H99.0202V24.3459H97.0599V11.2288ZM99.0097 17.525H101.746L101.788 17.5565C102.384 17.5565 102.956 17.3194 103.377 16.8972C103.799 16.4751 104.036 15.9026 104.036 15.3056C104.036 14.7086 103.799 14.1361 103.377 13.714C102.956 13.2919 102.384 13.0547 101.788 13.0547H99.0097V17.525Z"/>
<path fill-rule="evenodd" clip-rule="evenodd" d="M111.788 16.1165C112.408 15.7604 113.118 15.5935 113.832 15.6362L113.884 15.6676C116.117 15.6676 117.857 17.0003 117.857 19.2985V24.3459H115.97V23.2965H115.907C115.64 23.7132 115.265 24.0499 114.822 24.2715C114.379 24.4931 113.885 24.5913 113.392 24.5558C112.988 24.5857 112.582 24.5342 112.198 24.4044C111.815 24.2746 111.461 24.0691 111.158 23.8C110.855 23.531 110.609 23.2039 110.435 22.838C110.26 22.4722 110.161 22.075 110.142 21.67C110.142 19.7707 112.039 18.7213 113.916 18.7213C114.628 18.7183 115.33 18.8913 115.96 19.225V19.0886C115.935 18.839 115.861 18.5969 115.742 18.3763C115.622 18.1557 115.461 17.9611 115.265 17.8038C115.07 17.6466 114.846 17.5298 114.605 17.4603C114.364 17.3908 114.112 17.37 113.863 17.3991C113.505 17.3697 113.145 17.4454 112.829 17.6168C112.513 17.7882 112.253 18.048 112.081 18.3645L110.341 17.6405C110.665 17.0022 111.167 16.4726 111.788 16.1165ZM112.06 21.712C112.06 22.499 112.951 22.8243 113.591 22.8243L113.643 22.8558C114.214 22.8419 114.761 22.6218 115.183 22.2361C115.605 21.8505 115.873 21.3252 115.939 20.7571C115.395 20.4532 114.78 20.301 114.157 20.3163C113.172 20.3163 112.06 20.6626 112.06 21.712Z"/>
<path d="M122.49 21.6385L124.734 15.951H126.914L121.547 28.323H119.503L121.495 23.9052L118.004 15.951H120.1L122.428 21.6385H122.49Z"/>
<path d="M109.073 24.3459H107.113V11.2288H109.073V24.3459Z"/>
</mask>
<path d="M51.2271 17.0103H48.2278C47.2263 17.0103 46.2275 17.013 45.2021 17.0209C45.0431 17.0209 44.9902 17.0525 44.9902 17.2237C45.0035 17.7058 45.0061 18.1904 44.9902 18.6725C44.9849 18.8621 45.0379 18.9095 45.2286 18.9095H49.3512C49.4678 18.9095 49.526 18.9096 49.5075 19.0623C49.4889 19.2151 49.4572 19.3652 49.4254 19.5128C49.3241 20.0045 49.1219 20.4702 48.8315 20.8808C48.5412 21.2914 48.1688 21.6381 47.7377 21.8993C46.6839 22.578 45.4084 22.8289 44.1742 22.6C43.3975 22.4876 42.6605 22.187 42.0281 21.7249C41.3956 21.2628 40.887 20.6534 40.547 19.9501C39.9387 18.7556 39.8302 17.3704 40.2451 16.0967C40.6601 14.8231 41.5648 13.7643 42.762 13.1513C43.6916 12.6751 44.7529 12.5159 45.7824 12.6982C46.7113 12.8367 47.5765 13.2508 48.2649 13.8863C48.355 13.96 48.408 13.9943 48.5139 13.8863C48.8875 13.499 49.2717 13.125 49.6585 12.7509C49.7433 12.6719 49.7407 12.627 49.6585 12.5507C49.3729 12.2839 49.0644 12.0424 48.7365 11.829C47.8913 11.273 46.9267 10.922 45.9202 10.8042C45.2247 10.7133 44.5195 10.724 43.8271 10.8359C42.965 10.9747 42.136 11.2703 41.3816 11.7078C39.9317 12.541 38.8329 13.8663 38.287 15.4404C38.1117 15.9048 37.9986 16.3901 37.9506 16.8839C37.8843 17.5426 37.9084 18.2072 38.0221 18.8595C38.1189 19.3885 38.279 19.9041 38.499 20.3952C38.7576 20.9507 39.0822 21.4733 39.466 21.9519C39.8564 22.4334 40.311 22.8597 40.8173 23.219C41.4966 23.7135 42.2605 24.0812 43.072 24.3043C43.5277 24.4408 43.9982 24.5222 44.4735 24.5466C44.915 24.5718 45.3578 24.5647 45.7982 24.5255C46.2051 24.4832 46.6081 24.4102 47.0038 24.307C47.8946 24.0687 48.7203 23.6348 49.4201 23.0372C50.2638 22.3492 50.8833 21.428 51.2005 20.39C51.525 19.3692 51.6155 18.2891 51.4655 17.229C51.439 17.0657 51.3966 17.0103 51.2271 17.0103Z" fill="black"/>
<path d="M83.6726 24.1606V17.8289C83.6709 15.7166 83.6744 13.6068 83.6834 11.4998C83.6834 11.3468 83.6539 11.2887 83.4798 11.2887H81.873C81.723 11.2861 81.6855 11.331 81.6855 11.4761V24.1974C81.6855 24.3531 81.7391 24.3794 81.881 24.3794C82.056 24.3794 82.2297 24.3777 82.4035 24.3759C82.7511 24.3724 83.0986 24.3689 83.4557 24.3794C83.6378 24.3821 83.6726 24.3268 83.6726 24.1606Z" fill="black"/>
<path fill-rule="evenodd" clip-rule="evenodd" d="M72.8326 25.8015L72.8319 25.8017C72.6356 25.8857 72.4392 25.9696 72.2429 26.0546C72.2769 26.1214 72.3031 26.1774 72.3241 26.2362C72.6157 26.8724 73.0503 27.4298 73.5927 27.8629C74.1949 28.3497 74.924 28.646 75.6897 28.715C76.2428 28.7746 76.8019 28.7394 77.3436 28.6108C77.8981 28.4914 78.4183 28.2435 78.8637 27.8864C79.3092 27.5293 79.668 27.0725 79.9124 26.5514C80.2718 25.7459 80.4422 24.8661 80.4104 23.9818V16.0995C80.413 15.9553 80.3606 15.9259 80.2321 15.9259H79.0788C79.0304 15.9259 78.9788 15.9201 78.927 15.9143C78.7993 15.9 78.6707 15.8856 78.5887 15.9579C78.506 16.0307 78.5216 16.1708 78.5371 16.3092C78.5432 16.3638 78.5493 16.4182 78.5493 16.4681V16.4895C78.5467 16.5055 78.551 16.5229 78.5554 16.5404C78.5642 16.5757 78.573 16.6114 78.5258 16.6363C78.4725 16.6645 78.4445 16.6245 78.4182 16.5871C78.4096 16.5748 78.4011 16.5628 78.3921 16.5535C77.8875 16.0309 77.2122 15.7154 76.4944 15.6668C74.94 15.5466 73.7002 16.1769 72.7697 17.4163C72.1845 18.1986 71.8709 19.1571 71.8785 20.1408C71.8686 20.701 71.9647 21.2578 72.1616 21.7809C72.3627 22.3338 72.6691 22.8407 73.0632 23.2726C73.4572 23.7044 73.9312 24.0525 74.4577 24.297C75.1491 24.636 75.9255 24.7515 76.6831 24.6282C77.3395 24.5277 77.9454 24.2105 78.4078 23.7254C78.4163 23.7168 78.4234 23.7059 78.4305 23.695C78.4499 23.6653 78.4692 23.6357 78.5153 23.6533C78.5627 23.6714 78.5565 23.7138 78.5506 23.7542C78.5487 23.7674 78.5468 23.7803 78.5468 23.7922C78.5501 24.1608 78.5299 24.5293 78.4864 24.8953C78.3789 25.6565 78.067 26.2736 77.3855 26.6342C77.0176 26.8496 76.5992 26.9591 76.175 26.9512C75.7507 26.9432 75.3366 26.8179 74.9767 26.5888C74.5573 26.3238 74.2223 25.9407 74.0121 25.4857L74.0075 25.4761L74.0009 25.462C73.9671 25.3897 73.9361 25.3232 73.8156 25.3762C73.488 25.5214 73.1601 25.6615 72.8326 25.8015ZM78.4392 18.9068C78.5896 19.2534 78.674 19.626 78.6882 20.0047C78.683 20.9128 78.4917 21.5806 77.9989 22.1308C77.7758 22.3777 77.5035 22.5731 77.2003 22.7042C76.8972 22.8352 76.57 22.8988 76.2408 22.8907C75.9115 22.8826 75.5878 22.803 75.2912 22.6572C74.9945 22.5114 74.7318 22.3028 74.5206 22.0453C74.0734 21.4997 73.8355 20.8074 73.8509 20.0967C73.8663 19.386 74.1341 18.7052 74.6045 18.1803C74.8674 17.8857 75.1997 17.6645 75.5701 17.5376C75.9404 17.4106 76.3363 17.3822 76.7205 17.455C77.1046 17.5278 77.4641 17.6993 77.7649 17.9534C78.0657 18.2074 78.2978 18.5356 78.4392 18.9068Z" fill="black"/>
<path fill-rule="evenodd" clip-rule="evenodd" d="M61.1613 20.1085C61.1515 20.9772 60.8872 21.8246 60.4004 22.5484C59.9135 23.2722 59.2248 23.8417 58.4174 24.188C57.61 24.5343 56.7183 24.6429 55.8498 24.5004C54.9813 24.3579 54.1731 23.9706 53.5227 23.3851C52.7482 22.696 52.2551 21.7519 52.1358 20.7297C52.0326 20.0891 52.0749 19.4338 52.2594 18.8112C52.4438 18.1886 52.766 17.6142 53.2026 17.1293C53.6368 16.6368 54.1791 16.2483 54.7882 15.9934C55.3972 15.7384 56.0572 15.6239 56.7178 15.6582C57.3074 15.6567 57.8914 15.7712 58.4356 15.9951C58.9797 16.2191 59.4731 16.548 59.8869 16.9624C60.3006 17.3768 60.6265 17.8685 60.8454 18.4087C61.0642 18.9489 61.1716 19.5268 61.1613 20.1085ZM58.1555 22.2535C57.7205 22.592 57.1833 22.7773 56.6293 22.7798C55.9999 22.769 55.3962 22.5312 54.932 22.1115C54.4677 21.6916 54.1751 21.1187 54.1095 20.5007C54.048 20.1265 54.0635 19.7441 54.1552 19.376C54.2468 19.0079 54.4127 18.6618 54.6429 18.3584C54.914 17.9818 55.2917 17.6927 55.7286 17.5269C56.1656 17.3612 56.6424 17.3263 57.0993 17.4267C57.5734 17.5062 58.0133 17.7219 58.3638 18.0467C58.7144 18.3716 58.9601 18.7912 59.0703 19.2531C59.2386 19.7862 59.2414 20.3569 59.0784 20.8916C58.9154 21.4263 58.5939 21.9006 58.1555 22.2535Z" fill="black"/>
<path fill-rule="evenodd" clip-rule="evenodd" d="M70.9694 20.1835C70.9628 21.0627 70.7106 21.9215 70.2426 22.658C69.7746 23.3945 69.1105 23.9778 68.3292 24.3385C67.5478 24.6993 66.682 24.8225 65.8345 24.6934C64.9869 24.5642 64.1933 24.1883 63.5478 23.6101C63.1138 23.2331 62.7596 22.769 62.5071 22.2461C62.2546 21.7233 62.1091 21.1529 62.0797 20.5702C61.9096 17.5812 64.0293 15.6449 66.5284 15.653C67.1123 15.6422 67.6924 15.7518 68.2342 15.9753C68.7761 16.1988 69.2687 16.5317 69.6829 16.9542C70.097 17.3767 70.4243 17.8802 70.6453 18.4349C70.8663 18.9896 70.9765 19.5842 70.9694 20.1835ZM66.7431 22.9227C67.2163 22.889 67.6665 22.7008 68.0279 22.3856C68.9203 21.631 69.182 20.6399 68.9596 19.5147C68.8878 19.0396 68.6813 18.5968 68.3658 18.2415C68.0502 17.8861 67.6396 17.634 67.1853 17.5167C66.7541 17.3776 66.2927 17.3706 65.8576 17.4965C65.4225 17.6224 65.0327 17.8759 64.7359 18.2257C64.4486 18.5475 64.2376 18.9331 64.1196 19.3524C64.0016 19.7717 63.9796 20.2132 64.0555 20.6427C64.2097 21.9222 65.2803 22.9204 66.7431 22.9227Z" fill="black"/>
<path fill-rule="evenodd" clip-rule="evenodd" d="M84.5972 20.1379C84.5682 19.4106 84.7207 18.6873 85.0411 18.0333C85.2195 17.6684 85.4487 17.3305 85.7216 17.0294C86.0086 16.7123 86.3424 16.4408 86.7115 16.2241C87.1693 15.9533 87.677 15.7771 88.2044 15.706C88.8754 15.5962 89.5633 15.6553 90.2057 15.8778C91.1722 16.2386 91.9718 16.9419 92.4518 17.8535C92.6342 18.1895 92.7916 18.5386 92.9225 18.8977C92.9682 19.0131 92.9521 19.0722 92.8364 19.1205L88.8634 20.7312L88.7857 20.7645C88.185 21.0218 87.5865 21.2782 86.9805 21.5123C86.8875 21.551 86.9012 21.5772 86.9358 21.6433L86.9402 21.6518C87.7041 23.1121 89.5036 23.241 90.6038 22.4276C90.8597 22.2321 91.0878 22.0028 91.2816 21.7458C91.341 21.6737 91.3706 21.693 91.4133 21.7207L91.4188 21.7243C91.5259 21.7957 91.6328 21.8672 91.7397 21.9386L91.7408 21.9393L91.7417 21.9399C92.096 22.1767 92.4498 22.4131 92.8068 22.6478C92.8767 22.6935 92.8875 22.7256 92.831 22.798C92.1862 23.6941 91.2434 24.3325 90.1707 24.5993C89.7845 24.7049 89.3847 24.7528 88.9844 24.7416C88.4101 24.7255 87.8434 24.6063 87.3113 24.3899C86.8809 24.1979 86.4791 23.9477 86.117 23.6463C85.6952 23.2893 85.3487 22.8523 85.0976 22.3605C84.73 21.6793 84.5569 20.9105 84.5972 20.1379ZM86.5689 19.7943C86.5689 20.0358 86.5689 20.0359 86.7841 19.9446C87.079 19.8233 87.3738 19.7018 87.6684 19.5803L87.6808 19.5752C88.6076 19.1932 89.5336 18.8115 90.4612 18.436C90.6307 18.3662 90.6334 18.2964 90.5446 18.1675C90.3966 17.9442 90.1974 17.7595 89.9635 17.6283C89.7296 17.4971 89.4678 17.4234 89.1997 17.4133C88.8687 17.3904 88.5366 17.4344 88.2231 17.5428C87.9097 17.6513 87.6214 17.8218 87.3757 18.0442C87.13 18.2666 86.9318 18.5363 86.7932 18.837C86.6546 19.1378 86.5783 19.4633 86.5689 19.7943Z" fill="black"/>
<path fill-rule="evenodd" clip-rule="evenodd" d="M97.0599 11.2288H101.756C102.315 11.1886 102.876 11.2641 103.404 11.4505C103.932 11.6369 104.416 11.9303 104.826 12.3123C105.236 12.6943 105.563 13.1568 105.787 13.6709C106.011 14.185 106.126 14.7397 106.126 15.3004C106.126 15.8611 106.011 16.4158 105.787 16.9299C105.563 17.444 105.236 17.9064 104.826 18.2884C104.416 18.6704 103.932 18.9638 103.404 19.1502C102.876 19.3366 102.315 19.4121 101.756 19.3719H99.0202V24.3459H97.0599V11.2288ZM99.0097 17.525H101.746L101.788 17.5565C102.384 17.5565 102.956 17.3194 103.377 16.8972C103.799 16.4751 104.036 15.9026 104.036 15.3056C104.036 14.7086 103.799 14.1361 103.377 13.714C102.956 13.2919 102.384 13.0547 101.788 13.0547H99.0097V17.525Z" fill="black"/>
<path fill-rule="evenodd" clip-rule="evenodd" d="M111.788 16.1165C112.408 15.7604 113.118 15.5935 113.832 15.6362L113.884 15.6676C116.117 15.6676 117.857 17.0003 117.857 19.2985V24.3459H115.97V23.2965H115.907C115.64 23.7132 115.265 24.0499 114.822 24.2715C114.379 24.4931 113.885 24.5913 113.392 24.5558C112.988 24.5857 112.582 24.5342 112.198 24.4044C111.815 24.2746 111.461 24.0691 111.158 23.8C110.855 23.531 110.609 23.2039 110.435 22.838C110.26 22.4722 110.161 22.075 110.142 21.67C110.142 19.7707 112.039 18.7213 113.916 18.7213C114.628 18.7183 115.33 18.8913 115.96 19.225V19.0886C115.935 18.839 115.861 18.5969 115.742 18.3763C115.622 18.1557 115.461 17.9611 115.265 17.8038C115.07 17.6466 114.846 17.5298 114.605 17.4603C114.364 17.3908 114.112 17.37 113.863 17.3991C113.505 17.3697 113.145 17.4454 112.829 17.6168C112.513 17.7882 112.253 18.048 112.081 18.3645L110.341 17.6405C110.665 17.0022 111.167 16.4726 111.788 16.1165ZM112.06 21.712C112.06 22.499 112.951 22.8243 113.591 22.8243L113.643 22.8558C114.214 22.8419 114.761 22.6218 115.183 22.2361C115.605 21.8505 115.873 21.3252 115.939 20.7571C115.395 20.4532 114.78 20.301 114.157 20.3163C113.172 20.3163 112.06 20.6626 112.06 21.712Z" fill="black"/>
<path d="M122.49 21.6385L124.734 15.951H126.914L121.547 28.323H119.503L121.495 23.9052L118.004 15.951H120.1L122.428 21.6385H122.49Z" fill="black"/>
<path d="M109.073 24.3459H107.113V11.2288H109.073V24.3459Z" fill="black"/>
<path d="M51.2271 17.0103H48.2278C47.2263 17.0103 46.2275 17.013 45.2021 17.0209C45.0431 17.0209 44.9902 17.0525 44.9902 17.2237C45.0035 17.7058 45.0061 18.1904 44.9902 18.6725C44.9849 18.8621 45.0379 18.9095 45.2286 18.9095H49.3512C49.4678 18.9095 49.526 18.9096 49.5075 19.0623C49.4889 19.2151 49.4572 19.3652 49.4254 19.5128C49.3241 20.0045 49.1219 20.4702 48.8315 20.8808C48.5412 21.2914 48.1688 21.6381 47.7377 21.8993C46.6839 22.578 45.4084 22.8289 44.1742 22.6C43.3975 22.4876 42.6605 22.187 42.0281 21.7249C41.3956 21.2628 40.887 20.6534 40.547 19.9501C39.9387 18.7556 39.8302 17.3704 40.2451 16.0967C40.6601 14.8231 41.5648 13.7643 42.762 13.1513C43.6916 12.6751 44.7529 12.5159 45.7824 12.6982C46.7113 12.8367 47.5765 13.2508 48.2649 13.8863C48.355 13.96 48.408 13.9943 48.5139 13.8863C48.8875 13.499 49.2717 13.125 49.6585 12.7509C49.7433 12.6719 49.7407 12.627 49.6585 12.5507C49.3729 12.2839 49.0644 12.0424 48.7365 11.829C47.8913 11.273 46.9267 10.922 45.9202 10.8042C45.2247 10.7133 44.5195 10.724 43.8271 10.8359C42.965 10.9747 42.136 11.2703 41.3816 11.7078C39.9317 12.541 38.8329 13.8663 38.287 15.4404C38.1117 15.9048 37.9986 16.3901 37.9506 16.8839C37.8843 17.5426 37.9084 18.2072 38.0221 18.8595C38.1189 19.3885 38.279 19.9041 38.499 20.3952C38.7576 20.9507 39.0822 21.4733 39.466 21.9519C39.8564 22.4334 40.311 22.8597 40.8173 23.219C41.4966 23.7135 42.2605 24.0812 43.072 24.3043C43.5277 24.4408 43.9982 24.5222 44.4735 24.5466C44.915 24.5718 45.3578 24.5647 45.7982 24.5255C46.2051 24.4832 46.6081 24.4102 47.0038 24.307C47.8946 24.0687 48.7203 23.6348 49.4201 23.0372C50.2638 22.3492 50.8833 21.428 51.2005 20.39C51.525 19.3692 51.6155 18.2891 51.4655 17.229C51.439 17.0657 51.3966 17.0103 51.2271 17.0103Z" stroke="#19191A" stroke-width="0.627429" mask="url(#path-12-inside-4_4176_231)"/>
<path d="M83.6726 24.1606V17.8289C83.6709 15.7166 83.6744 13.6068 83.6834 11.4998C83.6834 11.3468 83.6539 11.2887 83.4798 11.2887H81.873C81.723 11.2861 81.6855 11.331 81.6855 11.4761V24.1974C81.6855 24.3531 81.7391 24.3794 81.881 24.3794C82.056 24.3794 82.2297 24.3777 82.4035 24.3759C82.7511 24.3724 83.0986 24.3689 83.4557 24.3794C83.6378 24.3821 83.6726 24.3268 83.6726 24.1606Z" stroke="#19191A" stroke-width="0.627429" mask="url(#path-12-inside-4_4176_231)"/>
<path fill-rule="evenodd" clip-rule="evenodd" d="M72.8326 25.8015L72.8319 25.8017C72.6356 25.8857 72.4392 25.9696 72.2429 26.0546C72.2769 26.1214 72.3031 26.1774 72.3241 26.2362C72.6157 26.8724 73.0503 27.4298 73.5927 27.8629C74.1949 28.3497 74.924 28.646 75.6897 28.715C76.2428 28.7746 76.8019 28.7394 77.3436 28.6108C77.8981 28.4914 78.4183 28.2435 78.8637 27.8864C79.3092 27.5293 79.668 27.0725 79.9124 26.5514C80.2718 25.7459 80.4422 24.8661 80.4104 23.9818V16.0995C80.413 15.9553 80.3606 15.9259 80.2321 15.9259H79.0788C79.0304 15.9259 78.9788 15.9201 78.927 15.9143C78.7993 15.9 78.6707 15.8856 78.5887 15.9579C78.506 16.0307 78.5216 16.1708 78.5371 16.3092C78.5432 16.3638 78.5493 16.4182 78.5493 16.4681V16.4895C78.5467 16.5055 78.551 16.5229 78.5554 16.5404C78.5642 16.5757 78.573 16.6114 78.5258 16.6363C78.4725 16.6645 78.4445 16.6245 78.4182 16.5871C78.4096 16.5748 78.4011 16.5628 78.3921 16.5535C77.8875 16.0309 77.2122 15.7154 76.4944 15.6668C74.94 15.5466 73.7002 16.1769 72.7697 17.4163C72.1845 18.1986 71.8709 19.1571 71.8785 20.1408C71.8686 20.701 71.9647 21.2578 72.1616 21.7809C72.3627 22.3338 72.6691 22.8407 73.0632 23.2726C73.4572 23.7044 73.9312 24.0525 74.4577 24.297C75.1491 24.636 75.9255 24.7515 76.6831 24.6282C77.3395 24.5277 77.9454 24.2105 78.4078 23.7254C78.4163 23.7168 78.4234 23.7059 78.4305 23.695C78.4499 23.6653 78.4692 23.6357 78.5153 23.6533C78.5627 23.6714 78.5565 23.7138 78.5506 23.7542C78.5487 23.7674 78.5468 23.7803 78.5468 23.7922C78.5501 24.1608 78.5299 24.5293 78.4864 24.8953C78.3789 25.6565 78.067 26.2736 77.3855 26.6342C77.0176 26.8496 76.5992 26.9591 76.175 26.9512C75.7507 26.9432 75.3366 26.8179 74.9767 26.5888C74.5573 26.3238 74.2223 25.9407 74.0121 25.4857L74.0075 25.4761L74.0009 25.462C73.9671 25.3897 73.9361 25.3232 73.8156 25.3762C73.488 25.5214 73.1601 25.6615 72.8326 25.8015ZM78.4392 18.9068C78.5896 19.2534 78.674 19.626 78.6882 20.0047C78.683 20.9128 78.4917 21.5806 77.9989 22.1308C77.7758 22.3777 77.5035 22.5731 77.2003 22.7042C76.8972 22.8352 76.57 22.8988 76.2408 22.8907C75.9115 22.8826 75.5878 22.803 75.2912 22.6572C74.9945 22.5114 74.7318 22.3028 74.5206 22.0453C74.0734 21.4997 73.8355 20.8074 73.8509 20.0967C73.8663 19.386 74.1341 18.7052 74.6045 18.1803C74.8674 17.8857 75.1997 17.6645 75.5701 17.5376C75.9404 17.4106 76.3363 17.3822 76.7205 17.455C77.1046 17.5278 77.4641 17.6993 77.7649 17.9534C78.0657 18.2074 78.2978 18.5356 78.4392 18.9068Z" stroke="#19191A" stroke-width="0.627429" mask="url(#path-12-inside-4_4176_231)"/>
<path fill-rule="evenodd" clip-rule="evenodd" d="M61.1613 20.1085C61.1515 20.9772 60.8872 21.8246 60.4004 22.5484C59.9135 23.2722 59.2248 23.8417 58.4174 24.188C57.61 24.5343 56.7183 24.6429 55.8498 24.5004C54.9813 24.3579 54.1731 23.9706 53.5227 23.3851C52.7482 22.696 52.2551 21.7519 52.1358 20.7297C52.0326 20.0891 52.0749 19.4338 52.2594 18.8112C52.4438 18.1886 52.766 17.6142 53.2026 17.1293C53.6368 16.6368 54.1791 16.2483 54.7882 15.9934C55.3972 15.7384 56.0572 15.6239 56.7178 15.6582C57.3074 15.6567 57.8914 15.7712 58.4356 15.9951C58.9797 16.2191 59.4731 16.548 59.8869 16.9624C60.3006 17.3768 60.6265 17.8685 60.8454 18.4087C61.0642 18.9489 61.1716 19.5268 61.1613 20.1085ZM58.1555 22.2535C57.7205 22.592 57.1833 22.7773 56.6293 22.7798C55.9999 22.769 55.3962 22.5312 54.932 22.1115C54.4677 21.6916 54.1751 21.1187 54.1095 20.5007C54.048 20.1265 54.0635 19.7441 54.1552 19.376C54.2468 19.0079 54.4127 18.6618 54.6429 18.3584C54.914 17.9818 55.2917 17.6927 55.7286 17.5269C56.1656 17.3612 56.6424 17.3263 57.0993 17.4267C57.5734 17.5062 58.0133 17.7219 58.3638 18.0467C58.7144 18.3716 58.9601 18.7912 59.0703 19.2531C59.2386 19.7862 59.2414 20.3569 59.0784 20.8916C58.9154 21.4263 58.5939 21.9006 58.1555 22.2535Z" stroke="#19191A" stroke-width="0.627429" mask="url(#path-12-inside-4_4176_231)"/>
<path fill-rule="evenodd" clip-rule="evenodd" d="M70.9694 20.1835C70.9628 21.0627 70.7106 21.9215 70.2426 22.658C69.7746 23.3945 69.1105 23.9778 68.3292 24.3385C67.5478 24.6993 66.682 24.8225 65.8345 24.6934C64.9869 24.5642 64.1933 24.1883 63.5478 23.6101C63.1138 23.2331 62.7596 22.769 62.5071 22.2461C62.2546 21.7233 62.1091 21.1529 62.0797 20.5702C61.9096 17.5812 64.0293 15.6449 66.5284 15.653C67.1123 15.6422 67.6924 15.7518 68.2342 15.9753C68.7761 16.1988 69.2687 16.5317 69.6829 16.9542C70.097 17.3767 70.4243 17.8802 70.6453 18.4349C70.8663 18.9896 70.9765 19.5842 70.9694 20.1835ZM66.7431 22.9227C67.2163 22.889 67.6665 22.7008 68.0279 22.3856C68.9203 21.631 69.182 20.6399 68.9596 19.5147C68.8878 19.0396 68.6813 18.5968 68.3658 18.2415C68.0502 17.8861 67.6396 17.634 67.1853 17.5167C66.7541 17.3776 66.2927 17.3706 65.8576 17.4965C65.4225 17.6224 65.0327 17.8759 64.7359 18.2257C64.4486 18.5475 64.2376 18.9331 64.1196 19.3524C64.0016 19.7717 63.9796 20.2132 64.0555 20.6427C64.2097 21.9222 65.2803 22.9204 66.7431 22.9227Z" stroke="#19191A" stroke-width="0.627429" mask="url(#path-12-inside-4_4176_231)"/>
<path fill-rule="evenodd" clip-rule="evenodd" d="M84.5972 20.1379C84.5682 19.4106 84.7207 18.6873 85.0411 18.0333C85.2195 17.6684 85.4487 17.3305 85.7216 17.0294C86.0086 16.7123 86.3424 16.4408 86.7115 16.2241C87.1693 15.9533 87.677 15.7771 88.2044 15.706C88.8754 15.5962 89.5633 15.6553 90.2057 15.8778C91.1722 16.2386 91.9718 16.9419 92.4518 17.8535C92.6342 18.1895 92.7916 18.5386 92.9225 18.8977C92.9682 19.0131 92.9521 19.0722 92.8364 19.1205L88.8634 20.7312L88.7857 20.7645C88.185 21.0218 87.5865 21.2782 86.9805 21.5123C86.8875 21.551 86.9012 21.5772 86.9358 21.6433L86.9402 21.6518C87.7041 23.1121 89.5036 23.241 90.6038 22.4276C90.8597 22.2321 91.0878 22.0028 91.2816 21.7458C91.341 21.6737 91.3706 21.693 91.4133 21.7207L91.4188 21.7243C91.5259 21.7957 91.6328 21.8672 91.7397 21.9386L91.7408 21.9393L91.7417 21.9399C92.096 22.1767 92.4498 22.4131 92.8068 22.6478C92.8767 22.6935 92.8875 22.7256 92.831 22.798C92.1862 23.6941 91.2434 24.3325 90.1707 24.5993C89.7845 24.7049 89.3847 24.7528 88.9844 24.7416C88.4101 24.7255 87.8434 24.6063 87.3113 24.3899C86.8809 24.1979 86.4791 23.9477 86.117 23.6463C85.6952 23.2893 85.3487 22.8523 85.0976 22.3605C84.73 21.6793 84.5569 20.9105 84.5972 20.1379ZM86.5689 19.7943C86.5689 20.0358 86.5689 20.0359 86.7841 19.9446C87.079 19.8233 87.3738 19.7018 87.6684 19.5803L87.6808 19.5752C88.6076 19.1932 89.5336 18.8115 90.4612 18.436C90.6307 18.3662 90.6334 18.2964 90.5446 18.1675C90.3966 17.9442 90.1974 17.7595 89.9635 17.6283C89.7296 17.4971 89.4678 17.4234 89.1997 17.4133C88.8687 17.3904 88.5366 17.4344 88.2231 17.5428C87.9097 17.6513 87.6214 17.8218 87.3757 18.0442C87.13 18.2666 86.9318 18.5363 86.7932 18.837C86.6546 19.1378 86.5783 19.4633 86.5689 19.7943Z" stroke="#19191A" stroke-width="0.627429" mask="url(#path-12-inside-4_4176_231)"/>
<path fill-rule="evenodd" clip-rule="evenodd" d="M97.0599 11.2288H101.756C102.315 11.1886 102.876 11.2641 103.404 11.4505C103.932 11.6369 104.416 11.9303 104.826 12.3123C105.236 12.6943 105.563 13.1568 105.787 13.6709C106.011 14.185 106.126 14.7397 106.126 15.3004C106.126 15.8611 106.011 16.4158 105.787 16.9299C105.563 17.444 105.236 17.9064 104.826 18.2884C104.416 18.6704 103.932 18.9638 103.404 19.1502C102.876 19.3366 102.315 19.4121 101.756 19.3719H99.0202V24.3459H97.0599V11.2288ZM99.0097 17.525H101.746L101.788 17.5565C102.384 17.5565 102.956 17.3194 103.377 16.8972C103.799 16.4751 104.036 15.9026 104.036 15.3056C104.036 14.7086 103.799 14.1361 103.377 13.714C102.956 13.2919 102.384 13.0547 101.788 13.0547H99.0097V17.525Z" stroke="#19191A" stroke-width="0.627429" mask="url(#path-12-inside-4_4176_231)"/>
<path fill-rule="evenodd" clip-rule="evenodd" d="M111.788 16.1165C112.408 15.7604 113.118 15.5935 113.832 15.6362L113.884 15.6676C116.117 15.6676 117.857 17.0003 117.857 19.2985V24.3459H115.97V23.2965H115.907C115.64 23.7132 115.265 24.0499 114.822 24.2715C114.379 24.4931 113.885 24.5913 113.392 24.5558C112.988 24.5857 112.582 24.5342 112.198 24.4044C111.815 24.2746 111.461 24.0691 111.158 23.8C110.855 23.531 110.609 23.2039 110.435 22.838C110.26 22.4722 110.161 22.075 110.142 21.67C110.142 19.7707 112.039 18.7213 113.916 18.7213C114.628 18.7183 115.33 18.8913 115.96 19.225V19.0886C115.935 18.839 115.861 18.5969 115.742 18.3763C115.622 18.1557 115.461 17.9611 115.265 17.8038C115.07 17.6466 114.846 17.5298 114.605 17.4603C114.364 17.3908 114.112 17.37 113.863 17.3991C113.505 17.3697 113.145 17.4454 112.829 17.6168C112.513 17.7882 112.253 18.048 112.081 18.3645L110.341 17.6405C110.665 17.0022 111.167 16.4726 111.788 16.1165ZM112.06 21.712C112.06 22.499 112.951 22.8243 113.591 22.8243L113.643 22.8558C114.214 22.8419 114.761 22.6218 115.183 22.2361C115.605 21.8505 115.873 21.3252 115.939 20.7571C115.395 20.4532 114.78 20.301 114.157 20.3163C113.172 20.3163 112.06 20.6626 112.06 21.712Z" stroke="#19191A" stroke-width="0.627429" mask="url(#path-12-inside-4_4176_231)"/>
<path d="M122.49 21.6385L124.734 15.951H126.914L121.547 28.323H119.503L121.495 23.9052L118.004 15.951H120.1L122.428 21.6385H122.49Z" stroke="#19191A" stroke-width="0.627429" mask="url(#path-12-inside-4_4176_231)"/>
<path d="M109.073 24.3459H107.113V11.2288H109.073V24.3459Z" stroke="#19191A" stroke-width="0.627429" mask="url(#path-12-inside-4_4176_231)"/>
<defs>
<linearGradient id="paint0_linear_4176_231" x1="24.6148" y1="15.583" x2="5.54877" y2="15.583" gradientUnits="userSpaceOnUse">
<stop stop-color="#FFE000"/>
<stop offset="0.41" stop-color="#FFBD00"/>
<stop offset="0.78" stop-color="#FFA500"/>
<stop offset="1" stop-color="#FF9C00"/>
</linearGradient>
<linearGradient id="paint1_linear_4176_231" x1="17.2085" y1="16.8707" x2="-0.481818" y2="34.5909" gradientUnits="userSpaceOnUse">
<stop stop-color="#FF3A44"/>
<stop offset="1" stop-color="#C31162"/>
</linearGradient>
</defs>
</svg>
