<svg width="18" height="18" viewBox="0 0 18 18" fill="none" xmlns="http://www.w3.org/2000/svg">
<path d="M3 2.66705C2.99992 2.37381 3.07527 2.08574 3.21845 1.83193C3.36163 1.57812 3.56758 1.36754 3.81548 1.22148C4.06339 1.07541 4.34449 0.999014 4.63039 1.00001C4.91629 1.00101 5.19688 1.07935 5.44381 1.22715L15.1906 7.05843C15.4366 7.20482 15.6408 7.41486 15.7828 7.66756C15.9249 7.92026 15.9998 8.20677 16 8.49845C16.0002 8.79013 15.9258 9.07677 15.7842 9.32972C15.6426 9.58267 15.4388 9.79308 15.1931 9.9399L5.44381 15.7729C5.19688 15.9206 4.91629 15.999 4.63039 16C4.34449 16.001 4.06339 15.9246 3.81548 15.7785C3.56758 15.6325 3.36163 15.4219 3.21845 15.1681C3.07527 14.9143 2.99992 14.6262 3 14.3329V2.66705Z" stroke="#19191A" stroke-width="2" stroke-linecap="round" stroke-linejoin="round"/>
</svg>
